<svg viewBox="0 0 330 200" xmlns="http://www.w3.org/2000/svg"><g><g><g><g><g><line x1="68.21875" y1="177" x2="63.21875" y2="177" style="visibility: inherit;" fill="rgb(0, 0, 0)" stroke="rgb(204, 204, 204)" stroke-width="1px"></line><line x1="68.21875" y1="159.3" x2="63.21875" y2="159.3" style="visibility: inherit;" fill="rgb(0, 0, 0)" stroke="rgb(204, 204, 204)" stroke-width="1px"></line><line x1="68.21875" y1="141.6" x2="63.21875" y2="141.6" style="visibility: inherit;" fill="rgb(0, 0, 0)" stroke="rgb(204, 204, 204)" stroke-width="1px"></line><line x1="68.21875" y1="123.89999999999999" x2="63.21875" y2="123.89999999999999" style="visibility: inherit;" fill="rgb(0, 0, 0)" stroke="rgb(204, 204, 204)" stroke-width="1px"></line><line x1="68.21875" y1="106.2" x2="63.21875" y2="106.2" style="visibility: inherit;" fill="rgb(0, 0, 0)" stroke="rgb(204, 204, 204)" stroke-width="1px"></line><line x1="68.21875" y1="88.5" x2="63.21875" y2="88.5" style="visibility: inherit;" fill="rgb(0, 0, 0)" stroke="rgb(204, 204, 204)" stroke-width="1px"></line><line x1="68.21875" y1="70.8" x2="63.21875" y2="70.8" style="visibility: inherit;" fill="rgb(0, 0, 0)" stroke="rgb(204, 204, 204)" stroke-width="1px"></line><line x1="68.21875" y1="53.10000000000001" x2="63.21875" y2="53.10000000000001" style="visibility: inherit;" fill="rgb(0, 0, 0)" stroke="rgb(204, 204, 204)" stroke-width="1px"></line><line x1="68.21875" y1="35.400000000000006" x2="63.21875" y2="35.400000000000006" style="visibility: inherit;" fill="rgb(0, 0, 0)" stroke="rgb(204, 204, 204)" stroke-width="1px"></line><line x1="68.21875" y1="17.69999999999999" x2="63.21875" y2="17.69999999999999" style="visibility: inherit;" fill="rgb(0, 0, 0)" stroke="rgb(204, 204, 204)" stroke-width="1px"></line><line x1="68.21875" y1="0" x2="63.21875" y2="0" style="visibility: inherit;" fill="rgb(0, 0, 0)" stroke="rgb(204, 204, 204)" stroke-width="1px"></line></g><g transform="translate(58.21875, 0)"><text x="0" y="177" dx="0em" dy="0.3em" style="text-anchor: end; visibility: hidden; font-family: &quot;Helvetica Neue&quot;, sans-serif; font-size: 12px; font-weight: 200;" fill="rgb(50, 49, 63)" stroke="none" stroke-width="1px">-0.200</text><text x="0" y="159.3" dx="0em" dy="0.3em" style="text-anchor: end; visibility: inherit; font-family: &quot;Helvetica Neue&quot;, sans-serif; font-size: 12px; font-weight: 200;" fill="rgb(50, 49, 63)" stroke="none" stroke-width="1px">0.00</text><text x="0" y="141.6" dx="0em" dy="0.3em" style="text-anchor: end; visibility: hidden; font-family: &quot;Helvetica Neue&quot;, sans-serif; font-size: 12px; font-weight: 200;" fill="rgb(50, 49, 63)" stroke="none" stroke-width="1px">0.200</text><text x="0" y="123.89999999999999" dx="0em" dy="0.3em" style="text-anchor: end; visibility: inherit; font-family: &quot;Helvetica Neue&quot;, sans-serif; font-size: 12px; font-weight: 200;" fill="rgb(50, 49, 63)" stroke="none" stroke-width="1px">0.400</text><text x="0" y="106.2" dx="0em" dy="0.3em" style="text-anchor: end; visibility: hidden; font-family: &quot;Helvetica Neue&quot;, sans-serif; font-size: 12px; font-weight: 200;" fill="rgb(50, 49, 63)" stroke="none" stroke-width="1px">0.600</text><text x="0" y="88.5" dx="0em" dy="0.3em" style="text-anchor: end; visibility: inherit; font-family: &quot;Helvetica Neue&quot;, sans-serif; font-size: 12px; font-weight: 200;" fill="rgb(50, 49, 63)" stroke="none" stroke-width="1px">0.800</text><text x="0" y="70.8" dx="0em" dy="0.3em" style="text-anchor: end; visibility: hidden; font-family: &quot;Helvetica Neue&quot;, sans-serif; font-size: 12px; font-weight: 200;" fill="rgb(50, 49, 63)" stroke="none" stroke-width="1px">1.00</text><text x="0" y="53.10000000000001" dx="0em" dy="0.3em" style="text-anchor: end; visibility: inherit; font-family: &quot;Helvetica Neue&quot;, sans-serif; font-size: 12px; font-weight: 200;" fill="rgb(50, 49, 63)" stroke="none" stroke-width="1px">1.20</text><text x="0" y="35.400000000000006" dx="0em" dy="0.3em" style="text-anchor: end; visibility: hidden; font-family: &quot;Helvetica Neue&quot;, sans-serif; font-size: 12px; font-weight: 200;" fill="rgb(50, 49, 63)" stroke="none" stroke-width="1px">1.40</text><text x="0" y="17.69999999999999" dx="0em" dy="0.3em" style="text-anchor: end; visibility: inherit; font-family: &quot;Helvetica Neue&quot;, sans-serif; font-size: 12px; font-weight: 200;" fill="rgb(50, 49, 63)" stroke="none" stroke-width="1px">1.60</text><text x="0" y="0" dx="0em" dy="0.3em" style="text-anchor: end; visibility: hidden; font-family: &quot;Helvetica Neue&quot;, sans-serif; font-size: 12px; font-weight: 200;" fill="rgb(50, 49, 63)" stroke="none" stroke-width="1px">1.80</text></g><line x1="68.21875" y1="0" x2="68.21875" y2="177" fill="rgb(0, 0, 0)" stroke="rgb(204, 204, 204)" stroke-width="1px"></line></g></g><g transform="translate(68, 0)" clip-path="url(#clip_0)"><clipPath id="clip_0"><rect width="261" height="177"></rect></clipPath><g><g><g><line x1="0" y1="0" x2="0" y2="177" fill="rgb(0, 0, 0)" stroke="rgb(60, 60, 60)" stroke-width="1px" opacity="0.25"></line><line x1="29.086805555555554" y1="0" x2="29.086805555555554" y2="177" fill="rgb(0, 0, 0)" stroke="rgb(60, 60, 60)" stroke-width="1px" opacity="0.25"></line><line x1="58.17361111111111" y1="0" x2="58.17361111111111" y2="177" fill="rgb(0, 0, 0)" stroke="rgb(60, 60, 60)" stroke-width="1px" opacity="0.25"></line><line x1="87.26041666666666" y1="0" x2="87.26041666666666" y2="177" fill="rgb(0, 0, 0)" stroke="rgb(60, 60, 60)" stroke-width="1px" opacity="0.25"></line><line x1="116.34722222222221" y1="0" x2="116.34722222222221" y2="177" fill="rgb(0, 0, 0)" stroke="rgb(60, 60, 60)" stroke-width="1px" opacity="0.25"></line><line x1="145.43402777777777" y1="0" x2="145.43402777777777" y2="177" fill="rgb(0, 0, 0)" stroke="rgb(60, 60, 60)" stroke-width="1px" opacity="0.25"></line><line x1="174.52083333333331" y1="0" x2="174.52083333333331" y2="177" fill="rgb(0, 0, 0)" stroke="rgb(60, 60, 60)" stroke-width="1px" opacity="0.25"></line><line x1="203.60763888888889" y1="0" x2="203.60763888888889" y2="177" fill="rgb(0, 0, 0)" stroke="rgb(60, 60, 60)" stroke-width="1px" opacity="0.25"></line><line x1="232.69444444444443" y1="0" x2="232.69444444444443" y2="177" fill="rgb(0, 0, 0)" stroke="rgb(60, 60, 60)" stroke-width="1px" opacity="0.25"></line><line x1="261.78125" y1="0" x2="261.78125" y2="177" fill="rgb(0, 0, 0)" stroke="rgb(60, 60, 60)" stroke-width="1px" opacity="0.25"></line></g><g><line x1="0" y1="177" x2="261.78125" y2="177" fill="rgb(0, 0, 0)" stroke="rgb(60, 60, 60)" stroke-width="1px" opacity="0.25"></line><line x1="0" y1="159.3" x2="261.78125" y2="159.3" fill="rgb(0, 0, 0)" stroke="rgb(60, 60, 60)" stroke-width="1px" opacity="0.25"></line><line x1="0" y1="141.6" x2="261.78125" y2="141.6" fill="rgb(0, 0, 0)" stroke="rgb(60, 60, 60)" stroke-width="1px" opacity="0.25"></line><line x1="0" y1="123.89999999999999" x2="261.78125" y2="123.89999999999999" fill="rgb(0, 0, 0)" stroke="rgb(60, 60, 60)" stroke-width="1px" opacity="0.25"></line><line x1="0" y1="106.2" x2="261.78125" y2="106.2" fill="rgb(0, 0, 0)" stroke="rgb(60, 60, 60)" stroke-width="1px" opacity="0.25"></line><line x1="0" y1="88.5" x2="261.78125" y2="88.5" fill="rgb(0, 0, 0)" stroke="rgb(60, 60, 60)" stroke-width="1px" opacity="0.25"></line><line x1="0" y1="70.8" x2="261.78125" y2="70.8" fill="rgb(0, 0, 0)" stroke="rgb(60, 60, 60)" stroke-width="1px" opacity="0.25"></line><line x1="0" y1="53.10000000000001" x2="261.78125" y2="53.10000000000001" fill="rgb(0, 0, 0)" stroke="rgb(60, 60, 60)" stroke-width="1px" opacity="0.25"></line><line x1="0" y1="35.400000000000006" x2="261.78125" y2="35.400000000000006" fill="rgb(0, 0, 0)" stroke="rgb(60, 60, 60)" stroke-width="1px" opacity="0.25"></line><line x1="0" y1="17.69999999999999" x2="261.78125" y2="17.69999999999999" fill="rgb(0, 0, 0)" stroke="rgb(60, 60, 60)" stroke-width="1px" opacity="0.25"></line><line x1="0" y1="0" x2="261.78125" y2="0" fill="rgb(0, 0, 0)" stroke="rgb(60, 60, 60)" stroke-width="1px" opacity="0.25"></line></g></g></g><g><g><line x1="0" y1="159.3" x2="261.78125" y2="159.3" fill="rgb(0, 0, 0)" stroke="rgb(153, 153, 153)" stroke-width="1.5px"></line></g></g><g><g><line x1="29.086805555555554" y1="0" x2="29.086805555555554" y2="177" fill="rgb(0, 0, 0)" stroke="rgb(153, 153, 153)" stroke-width="1.5px"></line></g></g><g><g><g><g><g><path stroke="rgb(0, 119, 187)" stroke-width="2px" d="M32.14092013888889,-1.3516780499638514L32.431788194444444,1.1252387417806915L32.72265625,2.9983470319485264L32.86809027777778,2.10610782760088L33.15895833333334,3.0593064524270233L33.59526041666666,2.947165574871292L33.74069444444444,3.6207380618353397L33.886128472222225,5.135697763652416L34.0315625,3.92148747450409L34.17699652777778,3.530980515550567L34.46786458333333,6.120661151940766L34.90416666666667,9.800858835831633L35.04960069444444,9.634583387241577L35.34046875,9.408523972824668L35.48590277777778,11.916783441201972L35.631336805555556,10.782396018857327L35.77677083333333,13.31098541226359L35.92220486111111,14.70442558663862L36.06763888888889,16.38092852697642L36.35850694444444,19.715911254636808L36.503940972222225,18.259172783695163L36.940243055555555,22.14624352560449L37.08567708333333,23.582262295552738L37.23111111111111,22.138530080564607L37.376545138888886,23.435613666101602L37.52197916666667,24.8690261272626L37.95828125,26.83047584338516L38.10371527777777,28.87418534773272L38.249149305555555,28.997737392990558L38.39458333333334,31.05184089523982L38.54001736111111,31.359484740186303L38.68545138888889,32.301492111618444L38.83088541666667,32.66958497891494L38.97631944444444,33.76932192725485L39.12175347222222,35.99138761292369L39.2671875,37.390625866454855L39.558055555555555,40.49319920531147L39.70348958333334,40.55752181516155L39.84892361111111,41.693587571909234L39.99435763888889,43.39061661583335L40.28522569444444,44.738757043176605L40.57609375,44.976143835586385L40.72152777777778,46.36435884273422L41.012395833333336,47.871934847426985L41.15782986111112,48.728019391882185L41.44869791666667,50.10175845530381L41.59413194444444,50.33663583484699L41.73956597222222,50.22204660572088L41.885,49.99481396829904L42.03043402777778,53.13481754573898L42.17586805555556,53.2354783964995L42.46673611111111,56.621430101360076L42.612170138888885,61.27434217259291L42.75760416666667,61.253888614575644L42.90303819444444,60.71873231858581L43.193906250000005,61.00178393402226L43.63020833333333,63.00390761948353L43.77564236111111,65.79462463957387L43.921076388888885,62.43059952877121L44.06651041666667,65.30435119556199L44.35737847222222,65.06976637293033L44.502812500000005,66.93486535887938L44.64824652777777,69.60877830869764L45.08454861111111,69.49126190446006L45.22998263888889,71.69871619314155L45.66628472222222,74.54327760696545L46.10258680555555,74.23454549666131L46.248020833333335,76.25567397414595L46.39345486111111,77.07542239167266L46.53888888888889,73.2046730973842L46.684322916666666,74.52820026739035L47.120625,80.38373766198626L47.26605902777778,82.41440335625106L47.41149305555555,82.14509356006138L47.556927083333335,83.12745690623748L47.70236111111112,86.28143205829744L47.993229166666666,88.26476190821073L48.13866319444444,89.83743586945235L48.57496527777778,91.48434863528041L49.011267361111116,90.6167770806402L49.156701388888884,91.00061150217377L49.44756944444444,92.49382895501601L49.7384375,95.4008608205901L49.88387152777778,96.94484581038051L50.02930555555556,96.40930974664997L50.174739583333334,96.06293385147859L50.32017361111111,95.72794654185043L50.46560763888888,96.3197589904785L50.75647569444445,96.74080394939159L50.90190972222222,99.21108654714703L51.04734375,101.09621350892226L51.19277777777778,100.89029266432054L51.483645833333334,101.97211315559909L51.62907986111111,101.93658838984304L51.77451388888889,102.75446076323031L52.06538194444445,102.99904992855842L52.21081597222222,103.24743679839834L52.35625,104.93645693306442L52.64711805555555,107.40032045130178L52.792552083333334,109.3283278534352L53.08342013888889,110.92420727245263L53.228854166666665,110.56508268644151L53.51972222222223,110.28425679083134L53.665156249999995,107.65021175857585L53.81059027777778,107.69755620808326L54.10145833333333,110.59262591120502L54.246892361111115,113.02056500527178L54.683194444444446,115.45060432976587L54.82862847222222,116.03386020401521L54.974062499999995,115.32747695522784L55.11949652777778,116.01706328134716L55.41036458333333,116.36822440214844L55.555798611111115,115.58804574650986L55.84666666666667,118.18348565450248L56.13753472222222,120.27528855438442L56.28296875,117.92467441252832L56.42840277777778,119.64301452714538L56.57383680555556,121.27727859195795L56.864704861111115,118.56121812288555L57.01013888888888,119.63835241147217L57.44644097222222,120.71205365480063L58.02817708333334,121.42910690009455L58.17361111111111,121.28309487345716L58.609913194444445,122.52282354167347L58.75534722222222,124.89642092997856L59.04621527777778,123.62444531804417L59.19164930555556,125.39835862577654L59.33708333333333,124.65412467131804L59.48251736111111,126.61817589486542L59.62795138888889,128.85785913085795L60.06425347222223,127.74425307279009L60.2096875,128.80980501272728L60.35512152777778,129.3411771099608L60.50055555555555,128.84707183027194L60.93685763888889,128.19879944658945L61.08229166666667,128.1427256489729L61.227725694444445,127.4088476343631L61.373159722222226,128.31865422188181L61.518593749999994,128.5923959948227L61.664027777777775,129.67786240705468L61.95489583333333,129.11714478082135L62.10032986111111,129.30647390872144L62.24576388888889,130.12290529422842L62.536631944444444,131.86754400603556L62.68206597222222,130.44412264873256L62.8275,130.45768902226308L62.972934027777775,130.3036256506337L63.11836805555556,131.34648286541074L63.26380208333333,132.03174315037865L63.40923611111111,131.36528212630736L63.70010416666667,132.3652664994728L63.845538194444444,134.12177453274273L64.13640625,134.67917703325048L64.71814236111112,135.5108082387479L64.86357638888889,136.58769362399832L65.15444444444444,136.80119125987636L65.29987847222222,135.4195533197881L65.4453125,137.60732439770962L65.59074652777777,138.24704396520394L65.73618055555556,136.91382694046706L65.88161458333333,137.94398249183556L66.02704861111111,135.5260729392081L66.31791666666668,138.02352988023512L66.75421875,139.14919664061824L66.89965277777777,138.02698462478037L67.04508680555556,137.7722474640862L67.19052083333332,137.18510388327246L67.48138888888889,137.21463309132344L67.77225694444445,137.84729708524117L68.063125,139.15560076979602L68.35399305555556,139.70086958724957L68.64486111111111,141.22171368147121L68.7902951388889,139.29426379692907L68.93572916666666,140.31670724800836L69.08116319444444,140.42072576509798L69.22659722222222,140.47711024866456L69.51746527777777,142.3128659668028L69.66289930555556,141.08150519774944L69.95376736111112,141.29899956117418L70.09920138888889,141.3276755425224L70.24463541666667,142.5985216611934L70.53550347222222,143.36172887785386L71.26267361111111,143.3040997869891L71.55354166666666,142.19668505334815L71.69897569444444,139.94160121967883L71.98984375,141.59098231342483L72.13527777777777,141.31043800210375L72.28071180555555,142.2455557087339L72.42614583333334,141.72846319952015L72.5715798611111,141.11344713394118L72.71701388888889,142.6600418036194L72.86244791666667,143.12480881028702L73.00788194444445,142.37521719573834L73.15331597222222,141.4157503720266L73.29875000000001,143.1995175839494L73.88048611111111,142.97256017272684L74.02592013888889,142.95857138116145L74.31678819444446,144.65699557366776L74.75309027777777,145.37865190473676L75.3348263888889,144.9847430692571L75.48026041666667,144.17549582607074L75.62569444444443,143.42744990603873L75.77112847222223,143.4434697413798L76.06199652777778,144.04953034178126L76.20743055555555,144.63005057645117L76.35286458333334,144.33050908755465L76.49829861111111,143.9140296128581L76.64373263888889,144.01029913057823L76.78916666666667,143.78112137248473L77.22546874999999,144.14709759691755L77.37090277777779,143.47071300064056L77.66177083333334,144.86829265874368L77.95263888888888,142.04279315005567L78.24350694444443,142.10885436871632L78.534375,142.2159686979625L78.82524305555556,143.98459620039574L78.97067708333334,144.11484802062256L79.11611111111111,142.27734805155728L79.26154513888888,144.76262669942452L79.40697916666667,145.46268581270257L79.55241319444444,146.08549817466687L79.69784722222222,145.75124427577938L79.84328125,146.1474226442726L79.98871527777779,144.8881711528738L80.27958333333332,145.53589674445817L80.57045138888888,145.9001438915287L80.71588541666667,145.60309651996056L81.00675347222223,146.863088415772L81.29762152777776,146.59221458918427L81.44305555555556,147.00801718619005L81.58848958333333,147.42848315482098L81.73392361111111,146.2738679628005L81.87935763888889,147.01404852266643L82.02479166666667,148.21785389174002L82.17022569444444,148.24947032995252L82.31565972222224,146.53132265679685L82.46109375,145.87133172324513L82.60652777777777,146.1468823819901L82.75196180555555,145.63862993573196L83.04282986111112,145.9763677443396L83.18826388888888,147.56740115617296L83.47913194444445,148.1471889718101L83.77,148.7095202937016L83.91543402777778,147.19084090661494L84.06086805555556,146.29685746497807L84.20630208333333,146.29762198752078L84.35173611111112,147.0831769161512L84.64260416666666,146.61232488931745L84.78803819444444,148.30462475873261L85.07890625,148.11756990011628L85.22434027777777,147.67987539458818L85.36977430555557,148.51497256704596L85.51520833333333,148.4637803055869L85.66064236111112,149.32180429791993L85.95151041666666,150.04818880927454L86.09694444444445,149.23009005339873L86.24237847222221,146.44611148805035L86.38781250000001,146.09852690735738L86.82411458333333,147.6311481868321L87.11498263888889,148.8278839127264L87.26041666666666,148.19390537531518L87.55128472222222,148.6711669827466L87.69671875,148.76152325467146L87.84215277777777,147.74620294880958L88.13302083333333,149.04551840311936L88.2784548611111,148.9359033309143L88.56932291666666,149.07712242512838L88.86019097222223,149.87776979954094L89.58736111111111,149.3308576772361L89.73279513888889,149.38979539269687L90.16909722222222,149.14088561043374L90.31453124999999,147.50975106760055L90.45996527777778,146.1203547015856L90.60539930555555,147.90053951337308L90.75083333333333,149.2354178591386L90.89626736111111,149.3268807071661L91.18713541666666,148.8347886216061L91.47800347222223,148.94723898917672L91.76887152777778,148.29264563119577L92.05973958333334,148.17920368445215L92.49604166666667,148.95804029545457L92.64147569444444,148.9355882353432L93.07777777777778,147.02978748700292L93.22321180555555,148.32689432514456L93.36864583333333,148.4711868926546L93.51407986111111,149.1735417044037L93.80494791666666,150.05718829508282L93.95038194444444,150.2475704620005L94.38668402777778,150.53072050674544L94.53211805555556,149.87849138978095L94.67755208333334,150.3361150410048L94.8229861111111,151.32995229964297L95.25928819444444,152.15780344882086L95.40472222222223,152.44583181293507L95.69559027777778,152.62428086308464L95.84102430555555,150.56368268908824L95.98645833333333,148.04517612037702L96.13189236111111,148.6928313377685L96.27732638888888,149.0324467128549L96.42276041666668,148.49967588443099L96.56819444444444,149.4432529535072L96.71362847222223,147.8534091800009L96.8590625,146.52702228251707L97.00449652777779,146.70966738887276L97.14993055555556,148.10374264374366L97.29536458333332,148.74542814825244L97.44079861111112,149.14296504732008L97.58623263888889,150.50426930966952L97.73166666666667,150.5720499397926L98.02253472222223,148.83209113917616L98.16796875,149.1657583587159L98.60427083333333,147.61146200129554L98.74970486111111,148.5731695996144L99.33144097222221,149.89445217701297L99.76774305555556,150.71727620164194L99.91317708333332,151.22466832782447L100.20404513888889,150.9067438976689L100.34947916666667,150.9767891377822L100.64034722222222,151.35099763481156L100.78578125,151.39086773295207L100.93121527777777,151.7670581192081L101.36751736111111,151.35640829509768L101.5129513888889,151.30300606406774L101.80381944444444,151.12163406832533L102.38555555555556,150.8800620752432L102.53098958333334,150.78438261937995L102.82185763888889,149.5087327237605L102.96729166666667,149.68362036922485L103.11272569444445,148.73719293711466L103.25815972222222,149.2320978307583L103.40359375,150.25058832094646L103.54902777777778,150.90121264015542L103.69446180555556,151.21382844155738L103.98532986111111,151.17699652475392L104.1307638888889,151.95428670463366L104.27619791666666,152.2797098694694L104.42163194444444,152.53696688886322L104.56706597222222,152.41049940542345L104.7125,151.78465725667482L104.85793402777777,149.64500468283126L105.2942361111111,150.1270804232633L105.43967013888889,150.9667076391726L105.58510416666667,150.79890838430705L106.45770833333333,152.05281976267247L106.74857638888889,151.7750203667825L106.89401041666666,150.99921718306996L107.03944444444446,151.53865809732378L107.18487847222222,150.84513390270678L107.33031249999999,151.72401916620015L107.47574652777777,151.2564217018274L107.62118055555555,150.97958106625498L107.76661458333334,152.01452440642169L107.9120486111111,152.91238567974216L108.0574826388889,151.6725223670474L108.20291666666667,152.71233083831274L108.34835069444443,152.41513852986233L108.49378472222223,152.6712784423514L108.63921875,152.89861367755674L108.78465277777778,151.57377164078673L108.93008680555555,151.7523934090521L109.07552083333334,152.14138660023158L109.36638888888889,151.36591616538297L109.51182291666667,152.46643643857243L109.65725694444444,152.95697709648744L109.94812499999999,151.7277700234443L110.23899305555555,152.55392777583006L110.52986111111112,153.28917378415795L110.67529513888888,151.2374322565222L111.11159722222223,151.8021195453044L111.25703125,152.7674455767321L111.40246527777778,152.84576060367527L111.69333333333334,152.8467357922072L111.83876736111111,152.89302797307568L111.98420138888888,152.33482792957943L112.27506944444444,152.6207342048605L112.42050347222222,153.1693953585839L112.5659375,152.92210186571126L112.71137152777779,152.6902956377546L113.00223958333332,152.19440641613417L113.14767361111112,152.79710998167593L113.29310763888888,154.17672222767453L113.43854166666667,153.19500985508657L113.58397569444445,152.6670786380773L113.72940972222223,149.65026095695083L113.87484375,150.80875111061022L114.02027777777776,150.9804880375931L114.16571180555556,152.22616907551907L114.45657986111111,152.41289499726014L114.60201388888889,152.37579469706526L114.74744791666667,152.75539320561558L115.18375,152.78842907035778L115.32918402777777,151.43921403210135L115.47461805555555,152.1791462394895L115.76548611111112,152.04470792660518L115.91092013888888,152.13610390694765L116.05635416666668,152.99137461383842L116.20178819444445,152.27017694460764L116.49265625,152.79849886124447L116.63809027777778,153.15458435298584L116.78352430555556,153.00555552457038L116.92895833333333,152.4628781444759L117.07439236111112,152.6812535162244L117.36526041666666,153.34139391903915L117.65612847222222,153.34823633311575L117.94699652777777,153.45632704628022L118.09243055555557,153.8741217715931L118.23786458333333,153.75086178644662L118.67416666666666,154.56644621057484L119.25590277777778,153.7800529594152L119.40133680555556,153.80553613666692L119.54677083333333,154.41220649546503L119.69220486111111,153.82906976974496L119.83763888888889,153.02000347278118L120.12850694444445,152.47548839579898L120.27394097222222,153.41064484277572L120.71024305555557,153.9194074070968L120.85567708333333,152.46219216319L121.1465451388889,153.15707926684544L121.43741319444445,153.4084228380985L121.58284722222223,154.19864472523324L122.01914930555554,154.54565526381316L122.31001736111111,154.56680480166762L122.45545138888889,154.4478678682709L122.60088541666667,154.0896884512386L122.74631944444445,154.23527790926153L122.89175347222222,154.0437906865099L123.03718749999999,154.7316042532932L123.18262152777778,153.44051870576564L123.32805555555555,152.79107606237903L123.47348958333333,152.83657358366423L123.61892361111111,152.5792396291493L123.7643576388889,153.30135958580186L123.90979166666666,153.76288739906423L124.05522569444445,154.09522594445886L124.20065972222223,154.4434684152503L124.63696180555556,154.10063770249806L124.78239583333334,153.41561803063902L125.07326388888889,153.5869991961396L125.36413194444444,153.48454924554227L125.50956597222222,153.42989344169024L125.655,153.610873804753L125.80043402777778,154.36889093716186L125.94586805555555,153.972911645314L126.09130208333333,154.02670381200346L126.23673611111111,153.54446690843338L126.38217013888888,153.1879042873523L126.52760416666666,152.8165464545717L126.81847222222223,151.8772622090954L126.96390625,152.57783923745234L127.10934027777778,151.97476421874816L127.25477430555556,151.96748115411125L127.40020833333334,151.83889757678867L127.69107638888889,152.03097365251782L127.83651041666667,152.6445555458032L127.98194444444444,153.5758784477181L128.12737847222223,153.5611405526445L128.2728125,154.11097936710192L128.4182465277778,154.77922387959916L128.56368055555555,154.99071882400898L128.70911458333333,153.63706035901197L128.8545486111111,154.1942352870311L128.9999826388889,154.39044119938114L129.14541666666668,154.86860455066312L129.29085069444443,155.15141348046384L129.43628472222224,154.2669944010875L129.87258680555556,154.20062383165128L130.16345486111112,154.72085274894096L130.45432291666668,152.3150959077754L130.890625,153.39971278696558L131.03605902777778,153.95511784242981L131.18149305555553,153.01084762277193L131.32692708333335,152.5768078528141L131.47236111111113,153.73802188207264L131.61779513888888,154.32665429682382L131.76322916666666,154.99789702988116L131.90866319444447,153.37035486389817L132.05409722222223,153.98323848722686L132.19953125,154.72570435365557L132.34496527777776,155.35690394229823L132.49039930555554,155.4637414555636L132.63583333333335,155.89136311675298L133.07213541666667,156.03645133289342L133.21756944444442,154.50327485534837L133.36300347222223,154.5466521235726L133.65387152777777,154.81080872808224L133.79930555555555,154.75177143688438L134.0901736111111,154.66204662341931L134.2356076388889,154.12707388329443L134.38104166666665,152.2640661465396L134.52647569444443,152.6577273448954L134.67190972222224,153.6818556655672L134.81734375,154.5221222511212L135.25364583333334,154.71716470733682L135.39907986111112,154.6166890957335L135.5445138888889,152.8258149375414L136.12625,153.04751355467002L136.27168402777778,152.4978596823826L136.56255208333332,152.89293089789484L136.70798611111113,154.00219551868938L136.85342013888888,154.38166170337678L136.99885416666666,155.2170302803032L137.28972222222222,155.6855854273954L137.5805902777778,155.70555679837628L137.72602430555554,155.65843039451076L137.87145833333332,155.42563915176618L138.16232638888889,155.67300793330946L138.30776041666667,154.95253726397465L138.45319444444445,155.4447158985668L138.59862847222223,155.53527849820134L138.7440625,155.50941278042617L138.88949652777777,155.8992785541487L139.03493055555555,155.86704295335346L139.18036458333333,154.24858892007651L139.61666666666667,152.83421591424826L139.76210069444443,154.0103790695157L140.05296875000002,152.85362044575848L140.19840277777777,153.671238108537L140.34383680555555,153.3413085766306L140.48927083333334,153.02969487147854L140.63470486111112,150.5022970049239L140.7801388888889,151.88446276684755L141.07100694444443,152.25556022223194L141.21644097222222,151.5825116316533L141.361875,152.78376906886155L141.50730902777778,153.6656397569067L141.65274305555556,152.8031927019852L141.79817708333331,153.72581107916815L141.94361111111112,153.28302285453483L142.0890451388889,152.64711361869018L142.52534722222222,153.155734306432L142.67078125,152.87595432908145L142.96164930555554,153.86377795151742L143.10708333333332,154.6949658866555L143.25251736111113,153.5081108175837L143.39795138888888,153.94871294364413L143.68881944444445,153.47154585574697L143.9796875,154.34395798529016L144.1251215277778,154.89775174204252L144.27055555555555,155.375435163089L144.41598958333333,155.6782784760411L144.5614236111111,155.7287629175328L144.7068576388889,154.61755463760377L144.85229166666667,153.54433791633625L144.99772569444445,153.13996026414566L145.28859375000002,154.083008570027L145.43402777777777,154.93384724281992L145.57946180555555,155.3447896109458L145.8703298611111,155.73793058663608L146.16119791666668,155.93706350627394L146.30663194444443,155.8311936525697L146.45206597222221,154.928143813845L146.59750000000003,154.04107393126063L146.74293402777778,155.02501198389362L146.88836805555556,155.58800135266083L147.1792361111111,155.62926649003563L147.3246701388889,155.87800290127566L147.47010416666666,156.04796658547835L147.76097222222222,155.24215405320444L147.90640624999997,154.21911200529112L148.19727430555557,155.23471648360623L148.6335763888889,154.55422819928387L148.92444444444445,154.95845516518688L149.06987847222223,155.0583231180845L149.21531249999998,155.15516844955772L149.65161458333333,153.2454493835131L149.7970486111111,153.6437425721296L150.08791666666667,154.0553101621115L150.23335069444445,154.7411394206357L150.52421875,155.0775580662088L150.6696527777778,154.63600005343113L150.81508680555555,155.18699764744923L151.10595486111112,154.90112795808201L151.25138888888887,154.98738057715698L151.6876909722222,154.22689461790264L151.833125,152.80450195769427L152.12399305555556,153.5674186654088L152.26942708333334,153.93142468378434L152.4148611111111,153.97160529592827L152.56029513888888,154.51016082541827L152.85116319444444,154.99218494476065L152.99659722222222,153.57147417802224L153.14203125,153.41926663751747L153.28746527777778,154.33506096827034L153.57833333333335,154.83896147502156L153.86920138888888,154.53010762795344L154.16006944444445,154.144124955823L154.30550347222223,154.7235054827512L154.45093749999998,155.37928334382724L154.59637152777776,155.69153858905733L154.74180555555557,153.4486661482793L155.32354166666667,154.3855783373494L155.46897569444445,154.76905107783946L155.61440972222223,154.76878204132177L155.75984375,155.17127411276627L155.90527777777777,155.62282531878648L156.19614583333333,155.2342977526059L156.34157986111111,154.98884244422868L156.48701388888887,154.8075955586162L156.63244791666668,154.0010783861939L156.77788194444446,154.6155420601619L156.9233159722222,155.0574668847071L157.06875,154.34187934813605L157.21418402777778,153.87143296932535L157.35961805555556,153.33763693664028L157.50505208333334,152.81243360843837L157.79592013888887,153.82632277613456L157.94135416666668,154.82543011736584L158.08678819444447,155.52285443088178L158.23222222222222,156.00717011006694L158.37765625,155.42949245902L158.52309027777775,156.00852330865374L158.66852430555556,155.1142725179672L158.9593923611111,154.92848547150007L159.10482638888888,155.4879020402402L159.25026041666666,155.81557658480637L159.39569444444444,154.6856770138071L159.54112847222223,154.7900468682474L159.6865625,155.5551875984073L159.97743055555557,152.93204755599618L160.12286458333335,154.1140814091444L160.70460069444445,154.3301536579832L160.85003472222223,155.05219248744177L161.14090277777777,155.46968458711422L161.28633680555558,155.93359112102655L161.43177083333333,156.25411707485344L161.5772048611111,154.27810899725668L161.7226388888889,154.67626640180458L161.86807291666665,154.84713087901605L162.01350694444446,155.30267026732767L162.304375,155.74149742666282L162.44980902777777,155.8680700472075L162.59524305555553,156.19892562806336L162.74067708333334,156.50180660461965L163.03154513888887,156.67013999630825L163.17697916666665,154.13222996998002L163.32241319444447,155.11278386473884L163.46784722222222,154.76931486038205L163.61328125,154.5468763124132L163.75871527777778,155.00523616781925L164.48588541666666,155.66309362132608L164.63131944444447,155.26592180478204L164.77675347222223,155.48998928750694L164.9221875,154.10561035206192L165.06762152777776,154.70826037508778L165.21305555555554,155.4874619646544L165.5039236111111,155.17340485475057L165.79479166666667,155.24803515633604L166.23109375,155.55740854275055L166.37652777777777,155.8587505310684L166.52196180555555,155.52755753439405L166.66739583333336,155.7660529148503L167.10369791666665,155.7585461254927L167.24913194444443,155.9368635524792L167.54,155.9626385993297L167.68543402777777,155.4940270213964L167.83086805555556,156.02038421956908L167.97630208333334,156.21795482516302L168.2671701388889,154.42792996654816L168.41260416666665,154.87059873568464L168.55803819444444,155.5357375160832L168.70347222222225,151.31922438765469L168.84890625,152.80888925934326L168.99434027777778,154.03108288553224L169.13977430555553,154.51003495025415L169.28520833333332,155.58229803856761L169.43064236111113,155.0690488432203L169.72151041666666,154.59207159189828L169.86694444444444,155.37267070278108L170.1578125,154.91361388188196L170.44868055555554,155.67601167975306L170.59411458333332,155.283025687345L170.88498263888889,154.56872020919891L171.17585069444445,154.5769238416827L171.32128472222223,155.30237723768562L171.46671875,155.78718437002757L171.61215277777777,155.9870694784344L172.0484548611111,155.0330463512867L172.1938888888889,155.89009150631637L172.33932291666667,156.4560900979209L172.48475694444443,156.83879181822965L172.77562500000002,156.58582958649086L172.92105902777777,154.5649406198543L173.06649305555555,154.46298205520205L173.21192708333334,155.05939037293055L173.35736111111112,155.47429517564527L173.79366319444443,155.90598224949304L174.08453125,156.07813102065307L174.22996527777778,155.6693349676915L174.52083333333331,155.1761088914821L174.66626736111112,155.1434615779013L174.95713541666666,155.04015007326976L175.10256944444444,155.43849738730398L175.24800347222222,153.58664776022584L175.3934375,154.18514070746662L175.68430555555554,155.07715876166333L175.82973958333332,155.18236520043723L175.97517361111113,154.48090772683256L176.26604166666667,155.09605940608992L176.41147569444445,155.88409863740083L176.5569097222222,155.80493976405324L176.70234375,155.1562060690127L176.99321180555555,155.40295999244267L177.13864583333333,156.07015299268954L177.4295138888889,154.35065283328882L177.8658159722222,153.29806261913149L178.15668402777777,153.83252628636396L178.30211805555555,153.7567056626306L178.44755208333333,153.78913989917655L178.5929861111111,154.80776536327392L178.88385416666668,154.22887503019035L179.17472222222221,154.8997075328093L179.32015625000003,155.44259382284L179.46559027777778,154.46031477901738L179.61102430555556,154.03180521302073L179.75645833333334,155.16008141644795L179.9018923611111,155.65403836638586L180.0473263888889,156.03149116335328L180.19276041666666,156.04432432566313L180.33819444444444,154.90999265286604L180.77449652777779,154.89685359769413L180.91993055555557,154.8925119166892L181.06536458333332,155.72716651981526L181.79253472222223,155.29981156008077L181.93796874999998,155.49225439712876L182.0834027777778,155.73784770471673L182.22883680555555,156.39655761514624L182.5197048611111,156.58863854257837L182.6651388888889,156.50240467414753L182.81057291666667,156.73323810516737L182.95600694444445,155.71322176247318L183.1014409722222,156.21153362030898L183.82861111111112,156.72645650772012L183.97404513888887,156.953298073445L184.11947916666668,156.05425309246644L184.26491319444446,155.99856878186586L184.4103472222222,156.52240141244718L184.55578125,154.53711163913286L184.84664930555556,154.9340315538043L184.99208333333334,155.74060382123946L185.1375173611111,156.0896027979662L185.28295138888888,155.43510062412287L185.42838541666669,156.29524137495207L185.57381944444444,156.3269187677365L185.71925347222222,156.90594989413609L185.8646875,156.9313702755892L186.01012152777778,156.86663993421757L186.30098958333335,157.10441344466545L186.4464236111111,155.45544336570825L186.59185763888888,155.86812264651257L186.73729166666666,154.77853758489627L186.88272569444445,155.0237093476091L187.02815972222223,154.39712751542973L187.17359374999998,155.50440998947718L187.46446180555557,156.25374463176473L187.7553298611111,155.6160054682955L188.04619791666667,155.49072459572434L188.19163194444445,155.48688777156434L188.33706597222223,156.01800176704728L188.62793402777777,156.00509828143205L188.91880208333333,156.46187354472175L189.06423611111111,156.83152025616977L189.35510416666668,157.05219045020976L189.6459722222222,156.3528052558401L189.79140625,156.7072865298478L189.93684027777778,156.72827482039278L190.22770833333334,156.60292101285364L190.66401041666668,156.4809612457761L190.80944444444447,156.52077959614303L191.24574652777775,156.79880517039126L191.39118055555556,156.85991020414136L191.53661458333335,157.03274331238032L191.97291666666666,157.3258242116334L192.11835069444444,156.8804572672698L192.40921875,157.0379251441436L192.55465277777776,157.24322488487232L192.70008680555557,157.43106571183924L192.84552083333335,156.9894676852956L192.9909548611111,157.05244088714835L193.1363888888889,157.3878035348596L193.28182291666664,157.2152135465108L193.42725694444445,157.35945750697974L193.57269097222223,157.37186216612477L193.718125,157.31408004981805L194.00899305555558,156.75799516572937L194.15442708333333,156.98483210395702L194.2998611111111,156.95525666854138L194.73616319444446,155.91467708067947L194.88159722222224,156.0363432135384L195.17246527777777,156.60426538452953L195.31789930555553,156.6847005508469L195.46333333333334,156.52684643297263L195.60876736111112,156.7373065965614L195.89963541666665,156.96925249124928L196.04506944444447,156.02461349237967L196.3359375,156.36998981917924L196.48137152777778,156.34094040905626L196.62680555555553,156.96259826445416L196.77223958333335,155.9458968519636L196.91767361111113,156.4672030465165L197.06310763888888,156.74694704631548L197.20854166666666,155.93363437831707L197.35397569444447,155.53579888903712L197.49940972222223,156.1768836242141L197.64484375,155.5791955477745L197.79027777777776,156.13936906324014L197.93571180555554,154.48514167262775L198.08114583333335,154.50506157237322L198.2265798611111,154.41030956124922L198.51744791666667,154.95666361048612L198.66288194444442,155.6941370865552L198.80831597222223,156.03338535958696L198.95375,156.2234862913163L199.24461805555555,155.6598391270528L199.39005208333336,156.0423805911028L199.97178819444443,156.3316287220642L200.40809027777777,155.55837747368273L200.84439236111112,155.92283306468295L200.9898263888889,154.4548678351182L201.13526041666665,154.28599773509418L201.28069444444444,155.07687198350732L201.5715625,154.66129557497135L201.71699652777778,154.62530091176683L201.86243055555553,155.5111826382869L202.00786458333332,156.0030745243263L202.15329861111113,156.6463296967502L202.44416666666666,156.82170851147475L202.58960069444444,156.02945598172823L202.73503472222222,155.87661099315227L202.88046875,156.34284539206948L203.0259027777778,156.67741702129004L203.17133680555554,156.71588284652984L203.31677083333332,156.10883779718847L203.46220486111113,156.88696496422955L203.60763888888889,156.57482937066604L203.75307291666667,156.54532674048295L203.89850694444445,156.8602319090632L204.189375,156.29262604542996L204.33480902777777,153.24280930446625L204.62567708333333,154.13626287667503L204.7711111111111,153.60058063527L204.9165451388889,153.51997047800535L205.20741319444443,154.69526064721134L205.35284722222224,155.17712759367743L205.49828125000002,155.59244604568252L205.64371527777777,155.9464704482923L205.78914930555555,156.14517522428613L205.93458333333334,155.21520191880114L206.51631944444443,155.1320334657779L206.8071875,155.5050369107325L207.24348958333331,156.17500214924073L207.38892361111112,156.7015622622887L207.5343576388889,156.1479187451968L207.67979166666666,156.6620418475292L207.82522569444444,156.946882020519L207.97065972222222,157.1884162739716L208.2615277777778,157.15255060901615L208.40696180555554,156.4536625663135L208.55239583333332,156.64238347560163L208.69782986111113,157.13000704224265L208.84326388888888,157.33158141596866L208.98869791666667,157.37805053927622L209.13413194444445,157.62501799195462L209.2795659722222,157.2224974542367L209.425,157.27674003057086L209.5704340277778,157.56833937119393L209.86130208333333,156.2318408457964L210.0067361111111,156.55167127664424L210.1521701388889,155.18735911201765L210.44303819444445,155.59109000816846L210.5884722222222,156.3394830814841L210.73390625000002,157.0143739155138L210.87934027777777,156.36547029428982L211.02477430555555,157.03610834083128L211.17020833333333,157.22037221048473L211.4610763888889,157.32840967632978L211.60651041666668,157.36617867347832L211.75194444444443,155.91411793562324L211.89737847222221,156.3532057358276L212.04281250000003,155.98526903048486L212.18824652777778,155.65803754834465L212.33368055555556,156.3238538775408L212.6245486111111,155.49434435367212L212.7699826388889,155.22315454618183L212.91541666666666,155.57262606044029L213.06085069444444,155.29824165333247L213.20628472222222,154.69176880327763L213.35171874999997,153.84583316326086L213.49715277777779,154.84758000912626L213.64258680555557,155.3480708575887L213.78802083333332,155.50013327446536L214.0788888888889,156.26701168241968L214.22432291666667,154.4829752198383L214.51519097222223,155.39446886034094L215.09692708333333,156.0290490631169L215.2423611111111,155.71732544585666L215.53322916666667,156.3053785237737L215.67866319444445,156.74454724413684L215.8240972222222,156.85436594529583L216.1149652777778,157.38037406297482L216.40583333333333,157.53981743257168L216.55126736111112,157.8017572389808L216.69670138888887,156.70096625534524L216.98756944444446,156.63478816327236L217.1330034722222,157.13026104665866L217.2784375,157.356501907262L217.42387152777778,156.907495408886L217.71473958333334,157.15787408744754L217.8601736111111,157.4589463338953L218.00560763888888,157.1615835370727L218.15104166666669,157.24967950918756L218.29647569444444,157.6578497197706L218.58734375,155.27400684592425L218.73277777777778,156.0540924958824L218.87821180555557,156.74220086460272L219.1690798611111,157.08116776477797L219.31451388888888,157.3646308384695L219.75081597222223,156.9482925859665L220.04168402777776,157.26957330849268L220.18711805555557,155.97280526228033L220.4779861111111,156.34218959595538L220.6234201388889,156.49004296462894L220.76885416666667,157.03066016460093L220.91428819444445,157.36290300489702L221.05972222222223,157.4597619274308L221.20515625,157.30473994975216L221.35059027777777,157.43859410762437L221.49602430555555,156.23548449573195L221.78689236111111,155.53726417799808L221.93232638888887,156.14921109525835L222.07776041666668,156.68335340682466L222.22319444444446,157.20045430023714L222.3686284722222,155.86632066096135L222.5140625,155.87914303216712L222.65949652777778,156.3485543542493L222.95036458333334,156.30519336744288L223.09579861111112,156.67616117885404L223.24123263888887,155.96713842764683L223.38666666666668,155.49055502444898L223.53210069444447,155.68195660141723L223.67753472222222,156.004494485418L224.11383680555556,156.67080146288578L224.4047048611111,157.22783461758735L224.55013888888888,157.4884278965991L224.69557291666666,157.67999767639924L224.84100694444444,157.54201095137444L224.98644097222223,157.64817331609456L225.131875,156.48707886027313L225.27730902777776,155.84127456146885L225.42274305555557,156.34177109893974L225.56817708333335,157.0423073455829L225.7136111111111,157.1765726070678L226.14991319444445,156.3861945532513L226.29534722222223,156.64784666059816L226.73164930555558,156.08014843593836L226.87708333333333,154.42153628149964L227.0225173611111,154.1562746595299L227.1679513888889,155.13936055910017L227.31338541666665,155.6945633972985L227.45881944444446,156.38806039644987L227.7496875,156.55937352787973L227.89512152777777,157.05800482487132L228.04055555555553,157.21866283794586L228.18598958333334,157.51897707455203L228.33142361111112,157.4877376066733L228.47685763888887,157.53732369224733L228.62229166666665,157.33032348646822L228.91315972222222,154.87012474593487L229.05859375,154.1614005487304L229.20402777777778,154.24149646715617L229.49489583333335,155.42686786656347L229.64032986111113,154.35271768300592L229.78576388888888,152.7512535025934L230.07663194444447,154.16624062404736L230.22206597222223,154.86980713459636L230.51293402777776,155.35769114338882L230.65836805555554,155.63140360009794L230.80380208333335,156.50985644523732L230.9492361111111,156.99154526735657L231.0946701388889,157.23066463582103L231.24010416666667,157.5994797133581L231.53097222222223,156.9792021642894L231.67640625,157.08320001905128L232.11270833333336,157.1422243987202L232.4035763888889,156.4977513546123L232.83987847222224,156.7650884234262" style="fill: none;" fill="none"></path></g></g></g></g><g opacity="0.2"><g><g><g><path stroke="rgb(0, 119, 187)" stroke-width="2px" d="M31.41375,-11.962243866920488L31.55918402777778,0.4162764430046195L31.704618055555557,1.5051969766616935L31.850052083333335,-2.288327229022997L31.99548611111111,3.725016582012188L32.14092013888889,2.3100265145301933L32.431788194444444,7.022605347633373L32.72265625,7.463005471229565L32.86809027777778,-0.022245776653306848L33.15895833333334,5.334316956996929L33.59526041666666,2.6794144392013663L33.74069444444444,5.229418087005627L33.886128472222225,8.754539179801952L34.0315625,1.0206661105156059L34.17699652777778,2.597947168350231L34.46786458333333,12.308567333221447L34.90416666666667,18.594914066791546L35.04960069444444,9.237244892120373L35.34046875,8.868310618400585L35.48590277777778,17.91086118221284L35.631336805555556,8.07147799730302L35.77677083333333,19.35376660823823L35.92220486111111,18.0344652414322L36.06763888888889,20.387447226047527L36.35850694444444,27.685899782180798L36.503940972222225,14.777831661701214L36.940243055555555,31.43565194606782L37.08567708333333,27.0140954732895L37.23111111111111,18.688260662555706L37.376545138888886,26.535419869422924L37.52197916666667,28.294636058807384L37.95828125,31.518005418777477L38.10371527777777,33.75830261707307L38.249149305555555,29.293005752563488L38.39458333333334,35.960799086093914L38.54001736111111,32.0947012782097L38.68545138888889,34.55272983312608L38.83088541666667,33.54926447868348L38.97631944444444,36.39750670194627L39.12175347222222,41.30174778699876L39.2671875,40.73456804752351L39.558055555555555,47.90782349109651L39.70348958333334,40.711241948604595L39.84892361111111,44.40859215259553L39.99435763888889,47.4462283730507L40.28522569444444,47.960584151744854L40.57609375,45.543458032608044L40.72152777777778,49.68195741176605L41.012395833333336,51.47478597164154L41.15782986111112,50.773916351795194L41.44869791666667,53.38476197719574L41.59413194444444,50.89795296192169L41.73956597222222,49.94819777011871L41.885,49.45176647901535L42.03043402777778,60.63889389038086L42.17586805555556,53.47604076862335L42.46673611111111,64.71328078508377L42.612170138888885,72.39401339292526L42.75760416666667,61.20500807762146L42.90303819444444,59.43979947566986L43.193906250000005,61.67822932004928L43.63020833333333,67.78864388465881L43.77564236111111,72.46396531462669L43.921076388888885,54.391149687767026L44.06651041666667,72.17213060259819L44.35737847222222,64.50914840698242L44.502812500000005,71.39213581681251L44.64824652777777,75.99897705316543L45.08454861111111,69.21041761636734L45.22998263888889,76.97415779829025L45.66628472222222,81.34129725694656L46.10258680555555,73.49672808051109L46.248020833333335,81.08582847118377L46.39345486111111,79.0344821691513L46.53888888888889,63.95423834323883L46.684322916666666,77.69120587706566L47.120625,94.37747957110405L47.26605902777778,87.26735018491745L47.41149305555555,81.50148879289627L47.556927083333335,85.47513880133629L47.70236111111112,93.81889809966087L47.993229166666666,93.00458409190178L48.13866319444444,93.59586008191108L48.57496527777778,95.42019100785255L49.011267361111116,88.54342811107635L49.156701388888884,91.91791071295738L49.44756944444444,96.0623655796051L49.7384375,102.34817426204681L49.88387152777778,100.63470824360847L50.02930555555556,95.12946932315826L50.174739583333334,95.2351541697979L50.32017361111111,94.92738364934921L50.46560763888888,97.73409043550491L50.75647569444445,97.74703003764152L50.90190972222222,105.11464326381683L51.04734375,105.60134743452072L51.19277777777778,100.3981767475605L51.483645833333334,104.5574807703495L51.62907986111111,101.85169022083282L51.77451388888889,104.7090371131897L52.06538194444445,103.58357657790184L52.21081597222222,103.8410393178463L52.35625,108.9729287803173L52.64711805555555,113.28853665590287L52.792552083333334,113.93593876361848L53.08342013888889,114.73808859586717L53.228854166666665,109.70683579444885L53.51972222222223,109.61313049793243L53.665156249999995,101.35529057979583L53.81059027777778,107.81070141792297L54.10145833333333,117.51135181188585L54.246892361111115,118.82292792499067L54.683194444444446,121.25798644423486L54.82862847222222,117.42774288654329L54.974062499999995,113.63934071660043L55.11949652777778,117.66505772173406L55.41036458333333,117.20743996202947L55.555798611111115,113.72355099320413L55.84666666666667,124.38614712953569L56.13753472222222,125.27434294223787L56.28296875,112.30710502266884L56.42840277777778,123.74955615699292L56.57383680555556,125.18289271295072L56.864704861111115,112.07029395103454L57.01013888888888,122.21252079606057L57.44644097222222,123.27801764309407L58.02817708333334,123.14274262189866L58.17361111111111,120.93415087759496L58.609913194444445,125.48556493520738L58.75534722222222,130.56891638338567L59.04621527777778,120.58463919460775L59.19164930555556,129.6377107679844L59.33708333333333,122.87553166151048L59.48251736111111,131.31192542910577L59.62795138888889,134.21032245755197L60.06425347222223,125.08292334079744L60.2096875,131.35629354715348L60.35512152777778,130.61106635928155L60.50055555555555,127.66624395847322L60.93685763888889,126.64953832626344L61.08229166666667,128.0087187767029L61.227725694444445,125.65500356554986L61.373159722222226,130.4929377615452L61.518593749999994,129.24659243524076L61.664027777777775,132.27194315493108L61.95489583333333,127.77712469100953L62.10032986111111,129.75893843472005L62.24576388888889,132.07403792738916L62.536631944444444,136.03693482577802L62.68206597222222,127.04238686263562L62.8275,130.49011035561563L62.972934027777775,129.93544030487539L63.11836805555556,133.83873485326768L63.26380208333333,133.66939908564092L63.40923611111111,129.77255323827268L63.70010416666667,134.7550596624613L63.845538194444444,138.319531019032L64.13640625,136.0112745344639L64.71814236111112,137.49826586544515L64.86357638888889,139.16126717180015L65.15444444444444,137.31141442358495L65.29987847222222,132.11767281889917L65.4453125,142.83572646528484L65.59074652777777,139.77586530447007L65.73618055555556,133.7276642203331L65.88161458333333,140.4058796569705L66.02704861111111,129.74767892360688L66.31791666666668,143.99202867150308L66.75421875,141.83934940695764L66.89965277777777,135.3450881123543L67.04508680555556,137.16346882581712L67.19052083333332,135.78193024098874L67.48138888888889,137.28520289361478L67.77225694444445,139.35925679951907L68.063125,142.28222482949496L68.35399305555556,141.00396964251996L68.64486111111111,144.85627329647542L68.7902951388889,134.68798525929452L68.93572916666666,142.76017380058767L69.08116319444444,140.6693123906851L69.22659722222222,140.61185960769654L69.51746527777777,146.70001098811628L69.66289930555556,138.13876166492702L69.95376736111112,141.81877422630788L70.09920138888889,141.39620627760888L70.24463541666667,145.63562848716975L70.53550347222222,145.18566476851703L71.26267361111111,143.16637602746488L71.55354166666666,139.55015153735877L71.69897569444444,134.55233307480813L71.98984375,145.53272357136012L72.13527777777777,140.63998464792968L72.28071180555555,144.4803285330534L72.42614583333334,140.49269974529744L72.5715798611111,139.64366297721864L72.71701388888889,146.35614092946054L72.86244791666667,144.2355231821537L73.00788194444445,140.58382028639318L73.15331597222222,139.12278728485109L73.29875000000001,147.46241888701917L73.88048611111111,142.4301704272628L74.02592013888889,142.9251405403018L74.31678819444446,148.71594152525068L74.75309027777777,147.10328822135926L75.3348263888889,144.04336771667005L75.48026041666667,142.24153207540513L75.62569444444443,141.63974694460632L75.77112847222223,143.48175443261863L76.06199652777778,145.4979124546051L76.20743055555555,146.01739554405214L76.35286458333334,143.61465569883586L76.49829861111111,142.91871425807477L76.64373263888889,144.24036696106197L76.78916666666667,143.2334253743291L77.22546874999999,145.0217187434435L77.37090277777779,141.8542684569955L77.66177083333334,148.20827116370202L77.95263888888888,135.2903282225132L78.24350694444443,142.2667294844985L78.534375,142.47195378988982L78.82524305555556,148.21131616383792L78.97067708333334,144.42612779438497L79.11611111111111,137.88603456616403L79.26154513888888,150.7020214341581L79.40697916666667,147.13570843935014L79.55241319444444,147.57391415834428L79.69784722222222,144.9524341106415L79.84328125,147.09422179609538L79.98871527777779,141.8787735208869L80.27958333333332,147.08385112434627L80.57045138888888,146.77063283622266L80.71588541666667,144.89320364892484L81.00675347222223,149.87425548881293L81.29762152777776,145.94487205445768L81.44305555555556,148.0017149180174L81.58848958333333,148.4333255544305L81.73392361111111,143.51453335136176L81.87935763888889,148.78295460641385L82.02479166666667,151.09474468901755L82.17022569444444,148.3250282585621L82.31565972222224,142.42524092942477L82.46109375,144.2940652549267L82.60652777777777,146.80540175288917L82.75196180555555,144.42399273365737L83.04282986111112,146.78350386321546L83.18826388888888,151.3697013437748L83.47913194444445,149.53278358206154L83.77,150.05339684262873L83.91543402777778,143.5614545747638L84.06086805555556,144.16038856208326L84.20630208333333,146.29944906681777L84.35173611111112,148.9605200506747L84.64260416666666,145.48706835061313L84.78803819444444,152.34893461614848L85.07890625,147.67054049223663L85.22434027777777,146.63385971188546L85.36977430555557,150.51071326732637L85.51520833333333,148.3414394773543L85.66064236111112,151.3723362118006L85.95151041666666,151.78412467539312L86.09694444444445,147.27497268766166L86.24237847222221,139.7928745776415L86.38781250000001,145.26785867214204L86.82411458333333,151.29385327845813L87.11498263888889,151.68787946105004L87.26041666666666,146.67880412489177L87.55128472222222,149.8117413327098L87.69671875,148.97745942994953L87.84215277777777,145.31975950598718L88.13302083333333,152.15066211596132L88.2784548611111,148.6739418871701L88.56932291666666,149.4146121248603L88.86019097222223,151.79118132144214L89.58736111111111,148.02383040189744L89.73279513888889,149.5306465432048L90.16909722222222,148.54603341892363L90.31453124999999,143.61161597371103L90.45996527777778,142.7999328777194L90.60539930555555,152.1548794873059L90.75083333333333,152.42555085495115L90.89626736111111,149.54546141177417L91.18713541666666,147.65877194255592L91.47800347222223,149.2159763082862L91.76887152777778,146.7282784536481L92.05973958333334,147.9080966591835L92.49604166666667,150.81932778954507L92.64147569444444,148.88193161711098L93.07777777777778,142.47524671554567L93.22321180555555,151.42675981968642L93.36864583333333,148.81602167263628L93.51407986111111,150.85205066129566L93.80494791666666,152.16895387619735L93.95038194444444,150.7025515727699L94.38668402777778,151.20740112215282L94.53211805555556,148.31977434754373L94.67755208333334,151.42975800409914L94.8229861111111,153.70505490079523L95.25928819444444,154.13622738160194L95.40472222222223,153.13417078480126L95.69559027777778,153.05074384734036L95.84102430555555,145.63920230716468L95.98645833333333,142.02637228667737L96.13189236111111,150.2406175352633L96.27732638888888,149.84406989738346L96.42276041666668,147.2264439046383L96.56819444444444,151.69824222028257L96.71362847222223,144.0539520263672L96.8590625,143.35718240886928L97.00449652777779,147.1461582362652L97.14993055555556,151.4353462189436L97.29536458333332,150.27894774377347L97.44079861111112,150.09301085695625L97.58623263888889,153.75755576714874L97.73166666666667,150.7340341575444L98.02253472222223,144.6738845139742L98.16796875,149.9631664596498L98.60427083333333,143.89695714712144L98.74970486111111,150.87148775830866L99.33144097222221,153.052093590796L99.76774305555556,152.6836861588061L99.91317708333332,152.43724951073528L100.20404513888889,150.1469583950937L100.34947916666667,151.14418538957835L100.64034722222222,152.24529251754285L100.78578125,151.4861505098641L100.93121527777777,152.66608938127757L101.36751736111111,150.37502481713892L101.5129513888889,151.17538378313185L101.80381944444444,150.68818573951722L102.38555555555556,150.3027459561825L102.53098958333334,150.55572493672372L102.82185763888889,146.46014568507672L102.96729166666667,150.1015721999109L103.11272569444445,146.47539178580047L103.25815972222222,150.4148366443813L103.40359375,152.6846079669893L103.54902777777778,152.4560944877565L103.69446180555556,151.96092722117902L103.98532986111111,151.08897448629142L104.1307638888889,153.811878490448L104.27619791666666,153.0574160769582L104.42163194444444,153.15176756232978L104.56706597222222,152.10826355516912L104.7125,150.28900059610606L104.85793402777777,144.5315976843238L105.2942361111111,151.2791597351432L105.43967013888889,152.9732743754983L105.58510416666667,150.39789660573007L106.45770833333333,155.0494554296136L106.74857638888889,151.1111268952489L106.89401041666666,149.14517906606198L107.03944444444446,152.82783045172692L107.18487847222222,149.18772862404586L107.33031249999999,153.82440598234535L107.47574652777777,150.13894301578404L107.62118055555555,150.31797886937858L107.76661458333334,154.48786357529463L107.9120486111111,155.0581219431013L108.0574826388889,148.7094591960311L108.20291666666667,155.19729684591294L108.34835069444443,151.7048992842436L108.49378472222223,153.2834094196558L108.63921875,153.44190635830165L108.78465277777778,148.40762372240425L108.93008680555555,152.1792691603303L109.07552083333334,153.07101439610125L109.36638888888889,149.51267326176168L109.51182291666667,155.09649336263539L109.65725694444444,154.1292861264199L109.94812499999999,148.79017345905305L110.23899305555555,154.5283047772944L110.52986111111112,155.04628712609411L110.67529513888888,146.3341177582741L111.11159722222223,153.15162645578386L111.25703125,155.07441117726268L111.40246527777778,153.03292024433614L111.69333333333334,152.84906632751228L111.83876736111111,153.003658439219L111.98420138888888,151.00082443580033L112.27506944444444,153.30400174409152L112.42050347222222,154.48060252256693L112.5659375,152.33111233189703L112.71137152777779,152.1363180421293L113.00223958333332,151.009315225482L113.14767361111112,154.23746935017408L113.29310763888888,157.47376166302712L113.43854166666667,150.84888367652894L113.58397569444445,151.40541250929238L113.72940972222223,142.44057802408935L113.87484375,153.57734622359277L114.02027777777776,151.39091018512846L114.16571180555556,155.20313562378288L114.45657986111111,152.85913830175997L114.60201388888889,152.28713126778604L114.74744791666667,153.6625693023205L115.18375,152.86737918779255L115.32918402777777,148.2148187711835L115.47461805555555,153.94745880290867L115.76548611111112,151.72342314496638L115.91092013888888,152.3545248091221L116.05635416666668,155.03532664217056L116.20178819444445,150.5466367520392L116.49265625,154.06109869591893L116.63809027777778,154.00556832477452L116.78352430555556,152.64940188378097L116.92895833333333,151.16597118526698L117.07439236111112,153.20313364192845L117.36526041666666,154.91901759356261L117.65612847222222,153.36458854302765L117.94699652777777,153.71464553028346L118.09243055555557,154.8725803524256L118.23786458333333,153.45629131346942L118.67416666666666,156.51555474959315L119.25590277777778,151.90070637613536L119.40133680555556,153.86643661111594L119.54677083333333,155.86204582750798L119.69220486111111,152.43547183200718L119.83763888888889,151.0864721529186L120.12850694444445,151.17418965250255L120.27394097222222,155.64551024995745L120.71024305555557,155.13526370488108L120.85567708333333,148.97969471588732L121.1465451388889,154.81774166710676L121.43741319444445,154.00909137278796L121.58284722222223,156.0871410995722L122.01914930555554,155.37495163567365L122.31001736111111,154.61734861247243L122.45545138888889,154.16362875625492L122.60088541666667,153.2337003529072L122.74631944444445,154.58321203775705L122.89175347222222,153.586168679595L123.03718749999999,156.3753620993346L123.18262152777778,150.3550430752337L123.32805555555555,151.2390182197094L123.47348958333333,152.94530494809152L123.61892361111111,151.96425509378315L123.7643576388889,155.0271038889885L123.90979166666666,154.8658606477082L124.05522569444445,154.88945873938502L124.20065972222223,155.27570889629425L124.63696180555556,153.28133040592076L124.78239583333334,151.77853711992503L125.07326388888889,153.99657113403083L125.36413194444444,153.23971122801305L125.50956597222222,153.2992753341794L125.655,154.04338619783522L125.80043402777778,156.18042340613903L125.94586805555555,153.02658825293184L126.09130208333333,154.15525797307492L126.23673611111111,152.39200244396926L126.38217013888888,152.33578005731107L126.52760416666666,151.92906417623163L126.81847222222223,149.63253206312658L126.96390625,154.25209959335626L127.10934027777778,150.53351714015008L127.25477430555556,151.95007586404682L127.40020833333334,151.53160462081433L127.69107638888889,152.49000291824342L127.83651041666667,154.11091227382423L127.98194444444444,155.80158233195544L128.12737847222223,153.52591948136688L128.2728125,155.4250009406358L128.4182465277778,156.3762150026858L128.56368055555555,155.4961558945477L128.70911458333333,150.4020460613072L128.8545486111111,155.52578892856837L128.9999826388889,154.8593400746584L129.14541666666668,156.01133391559125L129.29085069444443,155.82727888897062L129.43628472222224,152.15338270291687L129.87258680555556,154.04200941994787L130.16345486111112,155.96411168687047L130.45432291666668,146.5657448127866L130.890625,155.99176329486073L131.03605902777778,155.2824417885393L131.18149305555553,150.75420184358956L131.32692708333335,151.53952636867763L131.47236111111113,156.5131265960634L131.61779513888888,155.7333859998733L131.76322916666666,156.60205339193345L131.90866319444447,149.48080494180323L132.05409722222223,155.44792646840216L132.19953125,156.50007193274797L132.34496527777776,156.86536397617311L132.49039930555554,155.71906500421466L132.63583333333335,156.91330640874804L133.07213541666667,156.383187578246L133.21756944444442,150.83924293443562L133.36300347222223,154.65031644254924L133.65387152777777,155.44209824055434L133.79930555555555,154.61068231724204L134.0901736111111,154.4476195268333L134.2356076388889,152.84857970774175L134.38104166666665,147.81179341971875L134.52647569444443,153.59851088672877L134.67190972222224,156.12934877090157L134.81734375,156.5302169725299L135.25364583333334,155.1832831196487L135.39907986111112,154.37656941376628L135.5445138888889,148.54592923745514L136.12625,153.57733567357064L136.27168402777778,151.18428008928896L136.56255208333332,153.83708414174617L136.70798611111113,156.65314995143564L136.85342013888888,155.28852156847717L136.99885416666666,157.21341959126295L137.28972222222222,156.8053528128192L137.5805902777778,155.75328499004246L137.72602430555554,155.54580627679826L137.87145833333332,154.86930753774942L138.16232638888889,156.2641773942858L138.30776041666667,153.23073447793723L138.45319444444445,156.6209394151345L138.59862847222223,155.75170776173474L138.7440625,155.4475980989635L138.88949652777777,156.83099167440088L139.03493055555555,155.79000533111395L139.18036458333333,150.3807580947876L139.61666666666667,149.454104154557L139.76210069444443,156.82120966091753L140.05296875000002,150.08916339576245L140.19840277777777,155.62520574331285L140.34383680555555,152.55283291563393L140.48927083333334,152.28499093204738L140.63470486111112,144.46224447637798L140.7801388888889,155.18760467246176L141.07100694444443,153.1424202427268L141.21644097222222,149.97403957620264L141.361875,155.6545707408339L141.50730902777778,155.77316123172642L141.65274305555556,150.74209041818978L141.79817708333331,155.93071262463928L141.94361111111112,152.22483404651285L142.0890451388889,151.12739832624794L142.52534722222222,154.37125154323877L142.67078125,152.20732760354878L142.96164930555554,156.2245089814067L143.10708333333332,156.68136417232455L143.25251736111113,150.67172836437823L143.39795138888888,155.0016773466021L143.68881944444445,152.33119739145042L143.9796875,156.42887510843576L144.1251215277778,156.22122495733203L144.27055555555555,156.51701757609845L144.41598958333333,156.40202266462148L144.5614236111111,155.849412176013L144.7068576388889,151.96195518895985L144.85229166666667,150.97953185364605L144.99772569444445,152.17356621399523L145.28859375000002,156.3367341823876L145.43402777777777,156.9672074608505L145.57946180555555,156.32687221951784L145.8703298611111,156.67747088447214L146.16119791666668,156.4129574328661L146.30663194444443,155.57818264625968L146.45206597222221,152.7700077585876L146.59750000000003,151.92112726271154L146.74293402777778,157.37645716052504L146.88836805555556,156.93345052208753L147.1792361111111,155.7278831742704L147.3246701388889,156.47244076542557L147.47010416666666,156.4541509833187L147.76097222222222,153.31639867946507L147.90640624999997,151.7742149077356L148.19727430555557,157.6618390504271L148.6335763888889,152.9279765367508L148.92444444444445,155.92448910064996L149.06987847222223,155.2969905987382L149.21531249999998,155.38661237731577L149.65161458333333,148.6815444968641L149.7970486111111,154.59559578560294L150.08791666666667,155.03888694494964L150.23335069444445,156.38015510626138L150.52421875,155.88154160901905L150.6696527777778,153.5807512432337L150.81508680555555,156.50378850772978L151.10595486111112,154.21794785298408L151.25138888888887,155.19350971765817L151.6876909722222,152.40946207121016L151.833125,149.40522458329798L152.12399305555556,155.39066028892995L152.26942708333334,154.80133737176658L152.4148611111111,154.06763014867903L152.56029513888888,155.79721726030112L152.85116319444444,156.14414089098574L152.99659722222222,150.17621624395252L153.14203125,153.05551641359926L153.28746527777778,156.52365419939161L153.57833333333335,156.0431982792914L153.86920138888888,153.79199928157033L154.16006944444445,153.22169179022313L154.30550347222223,156.10812674202026L154.45093749999998,156.94648128300906L154.59637152777776,156.43777570053936L154.74180555555557,148.08858116269113L155.32354166666667,156.62463967055083L155.46897569444445,155.68548593223096L155.61440972222223,154.76813908964397L155.75984375,156.13316194452347L155.90527777777777,156.70195616707207L156.19614583333333,154.30578272156419L156.34157986111111,154.40224585980178L156.48701388888887,154.37444622181357L156.63244791666668,152.07363904193045L156.77788194444446,156.08400609456004L156.9233159722222,156.11359231285752L157.06875,152.63174642175437L157.21418402777778,152.7471458606422L157.35961805555556,152.06195489242674L157.50505208333334,151.5572866715491L157.79592013888887,156.24934604130686L157.94135416666668,157.21312732268126L158.08678819444447,157.1895803326741L158.23222222222222,157.1646024959162L158.37765625,154.04894078448416L158.52309027777775,157.3923088984564L158.66852430555556,152.977164696157L158.9593923611111,154.4844859197736L159.10482638888888,156.8248128231615L159.25026041666666,156.59866320826114L159.39569444444444,151.98540854752065L159.54112847222223,155.03947313055397L159.6865625,157.38374425861986L159.97743055555557,146.66318745464088L160.12286458333335,156.9389419734478L160.70460069444445,154.84652971029283L160.85003472222223,156.77774291038514L161.14090277777777,156.46741994395853L161.28633680555558,157.04224910885097L161.43177083333333,157.02011977806688L161.5772048611111,149.55578460842372L161.7226388888889,155.6277951143682L161.86807291666665,155.25546801947058L162.01350694444446,156.3913321953267L162.304375,156.7902199599892L162.44980902777777,156.17055715732278L162.59524305555553,156.98961438909174L162.74067708333334,157.22564080283047L163.03154513888887,157.0724282713607L163.17697916666665,148.06705516129733L163.32241319444447,157.456141477637L163.46784722222222,153.94848215505482L163.61328125,154.01528588421644L163.75871527777778,156.10063853412868L164.48588541666666,157.23526143394412L164.63131944444447,154.3167484804988L164.77675347222223,156.02547259368004L164.9221875,150.7971793368459L165.06762152777776,156.14849178604783L165.21305555555554,157.34962169565262L165.5039236111111,154.42286159209908L165.79479166666667,155.42638892792166L166.23109375,156.2967585001141L166.37652777777777,156.57890680823476L166.52196180555555,154.73606240674854L166.66739583333336,156.3360164511949L167.10369791666665,155.74060617126526L167.24913194444443,156.36301197968425L167.54,156.02423659265042L167.68543402777777,154.37412477582694L167.83086805555556,157.27828871011735L167.97630208333334,156.69011508598925L168.2671701388889,150.15007394850255L168.41260416666665,155.92850206531585L168.55803819444444,157.1253064658493L168.70347222222225,141.2424726739526L168.84890625,156.36893581710757L168.99434027777778,156.95191850066186L169.13977430555553,155.65464920662345L169.28520833333332,158.14482508013026L169.43064236111113,153.8424702577293L169.72151041666666,153.45217680484058L169.86694444444444,157.23817027285696L170.1578125,153.81654588617386L170.44868055555554,157.49801319669933L170.59411458333332,154.34385577328504L170.88498263888889,152.86165118515493L171.17585069444445,154.59652913287283L171.32128472222223,157.03608789592982L171.46671875,156.94579124562443L171.61215277777777,156.46476100869478L172.0484548611111,152.75309277623893L172.1938888888889,157.93828416494654L172.33932291666667,157.80873079989107L172.48475694444443,157.75338406506927L172.77562500000002,155.98129272758962L172.92105902777777,149.73535851314665L173.06649305555555,154.2193183667958L173.21192708333334,156.48470516614617L173.35736111111112,156.4658473312855L173.79366319444443,156.9376411886886L174.08453125,156.48953740596772L174.22996527777778,154.69238168857993L174.52083333333331,153.9973821669817L174.66626736111112,155.0654400318861L174.95713541666666,154.79325308762492L175.10256944444444,156.3904799513519L175.24800347222222,149.1610410243273L175.3934375,155.61543741188945L175.68430555555554,157.20893072169275L175.82973958333332,155.4337907575071L175.97517361111113,152.8045432560146L176.26604166666667,156.56616765651853L176.41147569444445,157.7673788342625L176.5569097222222,155.61576347351075L176.70234375,153.60584249272944L176.99321180555555,155.99266004674138L177.13864583333333,157.66463117972017L177.4295138888889,150.24133889302612L177.8658159722222,150.78255041241647L178.15668402777777,155.10980386398734L178.30211805555555,153.57550722286106L178.44755208333333,153.86665222719313L178.5929861111111,157.24210757408292L178.88385416666668,152.8454252511263L179.17472222222221,156.50288351364435L179.32015625000003,156.740000041388L179.46559027777778,152.11283435225488L179.61102430555556,153.0077399790287L179.75645833333334,157.85647030938418L179.9018923611111,156.8345117552206L180.0473263888889,156.9335393730551L180.19276041666666,156.07499340847136L180.33819444444444,152.1991322144866L180.77449652777779,154.8654534827918L180.91993055555557,154.88213603496553L181.06536458333332,157.72184955440463L181.79253472222223,154.27850563935937L181.93796874999998,155.95216016024352L182.0834027777778,156.32477408386768L182.22883680555555,157.97076265532525L182.5197048611111,157.04767940305175L182.6651388888889,156.2963203445077L182.81057291666667,157.2848908809945L182.95600694444445,153.27555558755995L183.1014409722222,157.40241450089962L183.82861111111112,157.95703493356706L183.97404513888887,157.4954109678045L184.11947916666668,153.90568796843291L184.26491319444446,155.86549271754922L184.4103472222222,157.77427261434497L184.55578125,149.79260557070376L184.84664930555556,155.8826028753072L184.99208333333334,157.6681748332456L185.1375173611111,156.92365119997413L185.28295138888888,153.87095136120917L185.42838541666669,158.35083198286594L185.57381944444444,156.40262236744167L185.71925347222222,158.28973614536227L185.8646875,156.99212067872287L186.01012152777778,156.71194538958372L186.30098958333335,157.6726518340409L186.4464236111111,151.5146843634546L186.59185763888888,156.8543561819941L186.73729166666666,152.17461396306754L186.88272569444445,155.60962830595673L187.02815972222223,152.89970313683153L187.17359374999998,158.15062742745505L187.46446180555557,158.04452742096038L187.7553298611111,154.09191695898772L188.04619791666667,155.19132454432548L188.19163194444445,155.47771841213108L188.33706597222223,157.28727419693024L188.62793402777777,155.97426113784314L188.91880208333333,157.55348900444807L189.06423611111111,157.71491324454547L189.35510416666668,157.57955481223763L189.6459722222222,154.6813931811601L189.79140625,157.5544366931543L189.93684027777778,156.77843327745796L190.22770833333334,156.30334665924312L190.66401041666668,156.1894980736077L190.80944444444447,156.61593870464714L191.24574652777775,157.46323916986586L191.39118055555556,157.00594087801875L191.53661458333335,157.44578514732422L191.97291666666666,158.02623788611965L192.11835069444444,155.8161057561636L192.40921875,157.41424668040128L192.55465277777776,157.73385646864773L192.70008680555557,157.87997345086188L192.84552083333335,155.93412324897946L192.9909548611111,157.20293616615237L193.1363888888889,158.18926342176275L193.28182291666664,156.8027527268976L193.42725694444445,157.7041761243716L193.57269097222223,157.40150719899685L193.718125,157.17599058542402L194.00899305555558,155.42904654443265L194.15442708333333,157.52693393938245L194.2998611111111,156.88457639068366L194.73616319444446,153.42786823511125L194.88159722222224,156.32710464969279L195.17246527777777,157.96150311520324L195.31789930555553,156.87692696526648L195.46333333333334,156.14960184618832L195.60876736111112,157.24027071632446L195.89963541666665,157.5235638666898L196.04506944444447,153.76708639338614L196.3359375,157.19538070186974L196.48137152777778,156.27151724249126L196.62680555555553,158.44825517311693L196.77223958333335,153.51615279838444L196.91767361111113,157.71303649451585L197.06310763888888,157.41548779159785L197.20854166666666,153.98995495140554L197.35397569444447,154.58503949940206L197.49940972222223,157.70896748285742L197.64484375,154.15082234814764L197.79027777777776,157.47808882053943L197.93571180555554,150.53181858658792L198.08114583333335,154.55266675651075L198.2265798611111,154.18386831432582L198.51744791666667,156.262357185781L198.66288194444442,157.45657369885595L198.80831597222223,156.84413123242558L198.95375,156.6777952976525L199.24461805555555,154.31281793788077L199.39005208333336,156.956589852646L199.97178819444443,157.02288272995503L200.40809027777777,153.71043804958464L200.84439236111112,156.79382015503944L200.9898263888889,150.94667974412442L201.13526041666665,153.8824268180877L201.28069444444444,156.96692739073188L201.5715625,153.66813839524985L201.71699652777778,154.53927976749839L201.86243055555553,157.62828981522472L202.00786458333332,157.17861276045443L202.15329861111113,158.18360053254293L202.44416666666666,157.2408341534436L202.58960069444444,154.13610671572388L202.73503472222222,155.51133737638594L202.88046875,157.4570665827021L203.0259027777778,157.47698650807143L203.17133680555554,156.8078096492216L203.31677083333332,154.65810301825405L203.46220486111113,158.7465570074972L203.60763888888889,155.82887820638717L203.75307291666667,156.4748204547912L203.89850694444445,157.61280188821257L204.189375,154.93614423573018L204.33480902777777,145.95426421165467L204.62567708333333,156.2714654814452L204.7711111111111,152.32039087191225L204.9165451388889,153.3273258648813L205.20741319444443,157.5040049498901L205.35284722222224,156.32870792336763L205.49828125000002,156.58498675301672L205.64371527777777,156.79252876639367L205.78914930555555,156.62004596013577L205.93458333333334,152.9927233412862L206.51631944444443,154.9332749594003L206.8071875,156.39645192325116L207.24348958333331,157.77610551584513L207.38892361111112,157.9599516849965L207.5343576388889,154.82480457723142L207.67979166666666,157.8907089225948L207.82522569444444,157.62760175596924L207.97065972222222,157.76564220171423L208.2615277777778,157.0668377486989L208.40696180555554,154.78343859985472L208.55239583333332,157.09339446220548L208.69782986111113,158.29534471845255L208.84326388888888,157.8133100040257L208.98869791666667,157.48910386785866L209.13413194444445,158.21522834496574L209.2795659722222,156.2605415929109L209.425,157.4063705943525L209.5704340277778,158.265212371666L209.86130208333333,153.03783589527012L210.0067361111111,157.31601179782302L210.1521701388889,151.92688427791L210.44303819444445,156.55593842100353L210.5884722222222,158.12801568042488L210.73390625000002,158.62724862056785L210.87934027777777,154.81470062322916L211.02477430555555,158.63881960459986L211.17020833333333,157.66073162779213L211.4610763888889,157.58660090826453L211.60651041666668,157.45644017513843L211.75194444444443,152.44393888413907L211.89737847222221,157.40255115665497L212.04281250000003,155.10596266686917L212.18824652777778,154.87600976899267L212.33368055555556,157.91504205409439L212.6245486111111,153.5119571864605L212.7699826388889,154.57505687065424L212.91541666666666,156.40780374705793L213.06085069444444,154.64250942617656L213.20628472222222,153.242401483655L213.35171874999997,151.82419036254288L213.49715277777779,157.24158518314363L213.64258680555557,156.5441591564566L213.78802083333332,155.86353667750956L214.0788888888889,158.0997210980393L214.22432291666667,150.2194304533303L214.51519097222223,157.57278417069466L215.09692708333333,157.54558819178493L215.2423611111111,154.97235883511604L215.53322916666667,157.71072570998223L215.67866319444445,157.79408605042846L215.8240972222222,157.11681402772666L216.1149652777778,158.63744431030938L216.40583333333333,157.92086006160827L216.55126736111112,158.42774897972123L216.69670138888887,154.07026237919928L216.98756944444446,156.47663373984398L217.1330034722222,158.31435725949706L217.2784375,157.8971792181954L217.42387152777778,155.83444598056377L217.71473958333334,157.75623669214548L217.8601736111111,158.1784579737112L218.00560763888888,156.4509368531406L218.15104166666669,157.46021395102144L218.29647569444444,158.6333073416725L218.58734375,149.57702641859652L218.73277777777778,157.91836498137565L218.87821180555557,158.38666323730723L219.1690798611111,157.89124120417983L219.31451388888888,158.04205954000355L219.75081597222223,155.95331472828985L220.04168402777776,158.03737978097053L220.18711805555557,152.87374942302705L220.4779861111111,157.22495554592462L220.6234201388889,156.84338745586575L220.76885416666667,158.32264364250005L220.91428819444445,158.15690708085896L221.05972222222223,157.69123833552004L221.20515625,156.93426369801165L221.35059027777777,157.75848285779358L221.49602430555555,153.36025644019247L221.78689236111111,153.86863596104087L221.93232638888887,157.6116605076939L222.07776041666668,157.959862998873L222.22319444444446,158.43623779127375L222.3686284722222,152.67796738743783L222.5140625,155.90978632606567L222.65949652777778,157.4703678527847L222.95036458333334,156.20156795829536L223.09579861111112,157.5627113722265L223.24123263888887,154.2726942256093L223.38666666666668,154.35160146765412L223.53210069444447,156.13937392942609L223.67753472222222,156.77530536074192L224.11383680555556,158.2631622056477L224.4047048611111,158.55904944492505L224.55013888888888,158.11120166508482L224.69557291666666,158.13781698066742L224.84100694444444,157.2122460661456L224.98644097222223,157.90188337415458L225.131875,153.7122599065304L225.27730902777776,154.29791174568237L225.42274305555557,157.53787299357356L225.56817708333335,158.7164702401031L225.7136111111111,157.49744382519276L226.14991319444445,154.49732496701182L226.29534722222223,157.27315084934236L226.73164930555558,154.72344589903952L226.87708333333333,150.4577343530953L227.0225173611111,153.5223443426192L227.1679513888889,157.48876923434437L227.31338541666665,157.02140407841654L227.45881944444446,158.04540068255739L227.7496875,156.96878287587316L227.89512152777777,158.2496491109021L228.04055555555553,157.60260825902225L228.18598958333334,158.23667719932274L228.33142361111112,157.41308057326825L228.47685763888887,157.655826032348L228.62229166666665,156.83562807943673L228.91315972222222,148.99066673889757L229.05859375,152.46766984015704L229.20402777777778,154.43291213661433L229.49489583333335,158.25970460074024L229.64032986111113,151.7856808036566L229.78576388888888,148.92402554601432L230.07663194444447,157.5478200159967L230.22206597222223,156.55121184624733L230.51293402777776,156.5236512321979L230.65836805555554,156.28552997969092L230.80380208333335,158.60920985480772L230.9492361111111,158.1426999100484L231.0946701388889,157.80211939774455L231.24010416666667,158.48088523764164L231.53097222222223,155.4968439538032L231.67640625,157.33173726517708L232.11270833333336,157.2832826619968L232.4035763888889,154.9575700119138L232.83987847222224,157.4039787065238" style="fill: none;" fill="none"></path></g></g></g></g></g></g><g transform="translate(68, 177)" clip-path="url(#clip_1)"><clipPath id="clip_1"><rect width="261" height="23"></rect></clipPath><g><g><line x1="0" y1="0" x2="0" y2="5" style="visibility: inherit;" fill="rgb(0, 0, 0)" stroke="rgb(204, 204, 204)" stroke-width="1px"></line><line x1="29.086805555555554" y1="0" x2="29.086805555555554" y2="5" style="visibility: inherit;" fill="rgb(0, 0, 0)" stroke="rgb(204, 204, 204)" stroke-width="1px"></line><line x1="58.17361111111111" y1="0" x2="58.17361111111111" y2="5" style="visibility: inherit;" fill="rgb(0, 0, 0)" stroke="rgb(204, 204, 204)" stroke-width="1px"></line><line x1="87.26041666666666" y1="0" x2="87.26041666666666" y2="5" style="visibility: inherit;" fill="rgb(0, 0, 0)" stroke="rgb(204, 204, 204)" stroke-width="1px"></line><line x1="116.34722222222221" y1="0" x2="116.34722222222221" y2="5" style="visibility: inherit;" fill="rgb(0, 0, 0)" stroke="rgb(204, 204, 204)" stroke-width="1px"></line><line x1="145.43402777777777" y1="0" x2="145.43402777777777" y2="5" style="visibility: inherit;" fill="rgb(0, 0, 0)" stroke="rgb(204, 204, 204)" stroke-width="1px"></line><line x1="174.52083333333331" y1="0" x2="174.52083333333331" y2="5" style="visibility: inherit;" fill="rgb(0, 0, 0)" stroke="rgb(204, 204, 204)" stroke-width="1px"></line><line x1="203.60763888888889" y1="0" x2="203.60763888888889" y2="5" style="visibility: inherit;" fill="rgb(0, 0, 0)" stroke="rgb(204, 204, 204)" stroke-width="1px"></line><line x1="232.69444444444443" y1="0" x2="232.69444444444443" y2="5" style="visibility: inherit;" fill="rgb(0, 0, 0)" stroke="rgb(204, 204, 204)" stroke-width="1px"></line><line x1="261.78125" y1="0" x2="261.78125" y2="5" style="visibility: inherit;" fill="rgb(0, 0, 0)" stroke="rgb(204, 204, 204)" stroke-width="1px"></line></g><g transform="translate(0, 8)"><text x="0" y="0" dx="0em" dy="0.95em" style="text-anchor: middle; visibility: hidden; font-family: &quot;Helvetica Neue&quot;, sans-serif; font-size: 12px; font-weight: 200;" fill="rgb(50, 49, 63)" stroke="none" stroke-width="1px">-200.0</text><text x="29.086805555555554" y="0" dx="0em" dy="0.95em" style="text-anchor: middle; visibility: inherit; font-family: &quot;Helvetica Neue&quot;, sans-serif; font-size: 12px; font-weight: 200;" fill="rgb(50, 49, 63)" stroke="none" stroke-width="1px">0.000</text><text x="58.17361111111111" y="0" dx="0em" dy="0.95em" style="text-anchor: middle; visibility: hidden; font-family: &quot;Helvetica Neue&quot;, sans-serif; font-size: 12px; font-weight: 200;" fill="rgb(50, 49, 63)" stroke="none" stroke-width="1px">200.0</text><text x="87.26041666666666" y="0" dx="0em" dy="0.95em" style="text-anchor: middle; visibility: inherit; font-family: &quot;Helvetica Neue&quot;, sans-serif; font-size: 12px; font-weight: 200;" fill="rgb(50, 49, 63)" stroke="none" stroke-width="1px">400.0</text><text x="116.34722222222221" y="0" dx="0em" dy="0.95em" style="text-anchor: middle; visibility: hidden; font-family: &quot;Helvetica Neue&quot;, sans-serif; font-size: 12px; font-weight: 200;" fill="rgb(50, 49, 63)" stroke="none" stroke-width="1px">600.0</text><text x="145.43402777777777" y="0" dx="0em" dy="0.95em" style="text-anchor: middle; visibility: inherit; font-family: &quot;Helvetica Neue&quot;, sans-serif; font-size: 12px; font-weight: 200;" fill="rgb(50, 49, 63)" stroke="none" stroke-width="1px">800.0</text><text x="174.52083333333331" y="0" dx="0em" dy="0.95em" style="text-anchor: middle; visibility: hidden; font-family: &quot;Helvetica Neue&quot;, sans-serif; font-size: 12px; font-weight: 200;" fill="rgb(50, 49, 63)" stroke="none" stroke-width="1px">1.000k</text><text x="203.60763888888889" y="0" dx="0em" dy="0.95em" style="text-anchor: middle; visibility: inherit; font-family: &quot;Helvetica Neue&quot;, sans-serif; font-size: 12px; font-weight: 200;" fill="rgb(50, 49, 63)" stroke="none" stroke-width="1px">1.200k</text><text x="232.69444444444443" y="0" dx="0em" dy="0.95em" style="text-anchor: middle; visibility: hidden; font-family: &quot;Helvetica Neue&quot;, sans-serif; font-size: 12px; font-weight: 200;" fill="rgb(50, 49, 63)" stroke="none" stroke-width="1px">1.400k</text><text x="261.78125" y="0" dx="0em" dy="0.95em" style="text-anchor: middle; visibility: hidden; font-family: &quot;Helvetica Neue&quot;, sans-serif; font-size: 12px; font-weight: 200;" fill="rgb(50, 49, 63)" stroke="none" stroke-width="1px">1.600k</text></g><line x1="0" y1="0" x2="261.78125" y2="0" fill="rgb(0, 0, 0)" stroke="rgb(204, 204, 204)" stroke-width="1px"></line></g></g></g></g></svg>