<svg viewBox="0 0 330 200" xmlns="http://www.w3.org/2000/svg"><g><g><g><g><g><line x1="58.515625" y1="177" x2="53.515625" y2="177" style="visibility: inherit;" fill="rgb(0, 0, 0)" stroke="rgb(204, 204, 204)" stroke-width="1px"></line><line x1="58.515625" y1="162.25" x2="53.515625" y2="162.25" style="visibility: inherit;" fill="rgb(0, 0, 0)" stroke="rgb(204, 204, 204)" stroke-width="1px"></line><line x1="58.515625" y1="147.5" x2="53.515625" y2="147.5" style="visibility: inherit;" fill="rgb(0, 0, 0)" stroke="rgb(204, 204, 204)" stroke-width="1px"></line><line x1="58.515625" y1="132.75" x2="53.515625" y2="132.75" style="visibility: inherit;" fill="rgb(0, 0, 0)" stroke="rgb(204, 204, 204)" stroke-width="1px"></line><line x1="58.515625" y1="118.00000000000003" x2="53.515625" y2="118.00000000000003" style="visibility: inherit;" fill="rgb(0, 0, 0)" stroke="rgb(204, 204, 204)" stroke-width="1px"></line><line x1="58.515625" y1="103.25" x2="53.515625" y2="103.25" style="visibility: inherit;" fill="rgb(0, 0, 0)" stroke="rgb(204, 204, 204)" stroke-width="1px"></line><line x1="58.515625" y1="88.5" x2="53.515625" y2="88.5" style="visibility: inherit;" fill="rgb(0, 0, 0)" stroke="rgb(204, 204, 204)" stroke-width="1px"></line><line x1="58.515625" y1="73.75000000000001" x2="53.515625" y2="73.75000000000001" style="visibility: inherit;" fill="rgb(0, 0, 0)" stroke="rgb(204, 204, 204)" stroke-width="1px"></line><line x1="58.515625" y1="59" x2="53.515625" y2="59" style="visibility: inherit;" fill="rgb(0, 0, 0)" stroke="rgb(204, 204, 204)" stroke-width="1px"></line><line x1="58.515625" y1="44.25000000000003" x2="53.515625" y2="44.25000000000003" style="visibility: inherit;" fill="rgb(0, 0, 0)" stroke="rgb(204, 204, 204)" stroke-width="1px"></line><line x1="58.515625" y1="29.5" x2="53.515625" y2="29.5" style="visibility: inherit;" fill="rgb(0, 0, 0)" stroke="rgb(204, 204, 204)" stroke-width="1px"></line><line x1="58.515625" y1="14.75" x2="53.515625" y2="14.75" style="visibility: inherit;" fill="rgb(0, 0, 0)" stroke="rgb(204, 204, 204)" stroke-width="1px"></line><line x1="58.515625" y1="0" x2="53.515625" y2="0" style="visibility: inherit;" fill="rgb(0, 0, 0)" stroke="rgb(204, 204, 204)" stroke-width="1px"></line></g><g transform="translate(48.515625, 0)"><text x="0" y="177" dx="0em" dy="0.3em" style="text-anchor: end; visibility: hidden; font-family: &quot;Helvetica Neue&quot;, sans-serif; font-size: 12px; font-weight: 200;" fill="rgb(50, 49, 63)" stroke="none" stroke-width="1px">0.500</text><text x="0" y="162.25" dx="0em" dy="0.3em" style="text-anchor: end; visibility: inherit; font-family: &quot;Helvetica Neue&quot;, sans-serif; font-size: 12px; font-weight: 200;" fill="rgb(50, 49, 63)" stroke="none" stroke-width="1px">0.550</text><text x="0" y="147.5" dx="0em" dy="0.3em" style="text-anchor: end; visibility: hidden; font-family: &quot;Helvetica Neue&quot;, sans-serif; font-size: 12px; font-weight: 200;" fill="rgb(50, 49, 63)" stroke="none" stroke-width="1px">0.600</text><text x="0" y="132.75" dx="0em" dy="0.3em" style="text-anchor: end; visibility: inherit; font-family: &quot;Helvetica Neue&quot;, sans-serif; font-size: 12px; font-weight: 200;" fill="rgb(50, 49, 63)" stroke="none" stroke-width="1px">0.650</text><text x="0" y="118.00000000000003" dx="0em" dy="0.3em" style="text-anchor: end; visibility: hidden; font-family: &quot;Helvetica Neue&quot;, sans-serif; font-size: 12px; font-weight: 200;" fill="rgb(50, 49, 63)" stroke="none" stroke-width="1px">0.700</text><text x="0" y="103.25" dx="0em" dy="0.3em" style="text-anchor: end; visibility: inherit; font-family: &quot;Helvetica Neue&quot;, sans-serif; font-size: 12px; font-weight: 200;" fill="rgb(50, 49, 63)" stroke="none" stroke-width="1px">0.750</text><text x="0" y="88.5" dx="0em" dy="0.3em" style="text-anchor: end; visibility: hidden; font-family: &quot;Helvetica Neue&quot;, sans-serif; font-size: 12px; font-weight: 200;" fill="rgb(50, 49, 63)" stroke="none" stroke-width="1px">0.800</text><text x="0" y="73.75000000000001" dx="0em" dy="0.3em" style="text-anchor: end; visibility: inherit; font-family: &quot;Helvetica Neue&quot;, sans-serif; font-size: 12px; font-weight: 200;" fill="rgb(50, 49, 63)" stroke="none" stroke-width="1px">0.850</text><text x="0" y="59" dx="0em" dy="0.3em" style="text-anchor: end; visibility: hidden; font-family: &quot;Helvetica Neue&quot;, sans-serif; font-size: 12px; font-weight: 200;" fill="rgb(50, 49, 63)" stroke="none" stroke-width="1px">0.900</text><text x="0" y="44.25000000000003" dx="0em" dy="0.3em" style="text-anchor: end; visibility: inherit; font-family: &quot;Helvetica Neue&quot;, sans-serif; font-size: 12px; font-weight: 200;" fill="rgb(50, 49, 63)" stroke="none" stroke-width="1px">0.950</text><text x="0" y="29.5" dx="0em" dy="0.3em" style="text-anchor: end; visibility: hidden; font-family: &quot;Helvetica Neue&quot;, sans-serif; font-size: 12px; font-weight: 200;" fill="rgb(50, 49, 63)" stroke="none" stroke-width="1px">1.00</text><text x="0" y="14.75" dx="0em" dy="0.3em" style="text-anchor: end; visibility: inherit; font-family: &quot;Helvetica Neue&quot;, sans-serif; font-size: 12px; font-weight: 200;" fill="rgb(50, 49, 63)" stroke="none" stroke-width="1px">1.05</text><text x="0" y="0" dx="0em" dy="0.3em" style="text-anchor: end; visibility: hidden; font-family: &quot;Helvetica Neue&quot;, sans-serif; font-size: 12px; font-weight: 200;" fill="rgb(50, 49, 63)" stroke="none" stroke-width="1px">1.10</text></g><line x1="58.515625" y1="0" x2="58.515625" y2="177" fill="rgb(0, 0, 0)" stroke="rgb(204, 204, 204)" stroke-width="1px"></line></g></g><g transform="translate(58, 0)" clip-path="url(#clip_0)"><clipPath id="clip_0"><rect width="271" height="177"></rect></clipPath><g><g><g><line x1="0" y1="0" x2="0" y2="177" fill="rgb(0, 0, 0)" stroke="rgb(60, 60, 60)" stroke-width="1px" opacity="0.25"></line><line x1="30.164930555555554" y1="0" x2="30.164930555555554" y2="177" fill="rgb(0, 0, 0)" stroke="rgb(60, 60, 60)" stroke-width="1px" opacity="0.25"></line><line x1="60.32986111111111" y1="0" x2="60.32986111111111" y2="177" fill="rgb(0, 0, 0)" stroke="rgb(60, 60, 60)" stroke-width="1px" opacity="0.25"></line><line x1="90.49479166666666" y1="0" x2="90.49479166666666" y2="177" fill="rgb(0, 0, 0)" stroke="rgb(60, 60, 60)" stroke-width="1px" opacity="0.25"></line><line x1="120.65972222222221" y1="0" x2="120.65972222222221" y2="177" fill="rgb(0, 0, 0)" stroke="rgb(60, 60, 60)" stroke-width="1px" opacity="0.25"></line><line x1="150.82465277777777" y1="0" x2="150.82465277777777" y2="177" fill="rgb(0, 0, 0)" stroke="rgb(60, 60, 60)" stroke-width="1px" opacity="0.25"></line><line x1="180.98958333333331" y1="0" x2="180.98958333333331" y2="177" fill="rgb(0, 0, 0)" stroke="rgb(60, 60, 60)" stroke-width="1px" opacity="0.25"></line><line x1="211.15451388888889" y1="0" x2="211.15451388888889" y2="177" fill="rgb(0, 0, 0)" stroke="rgb(60, 60, 60)" stroke-width="1px" opacity="0.25"></line><line x1="241.31944444444443" y1="0" x2="241.31944444444443" y2="177" fill="rgb(0, 0, 0)" stroke="rgb(60, 60, 60)" stroke-width="1px" opacity="0.25"></line><line x1="271.484375" y1="0" x2="271.484375" y2="177" fill="rgb(0, 0, 0)" stroke="rgb(60, 60, 60)" stroke-width="1px" opacity="0.25"></line></g><g><line x1="0" y1="177" x2="271.484375" y2="177" fill="rgb(0, 0, 0)" stroke="rgb(60, 60, 60)" stroke-width="1px" opacity="0.25"></line><line x1="0" y1="162.25" x2="271.484375" y2="162.25" fill="rgb(0, 0, 0)" stroke="rgb(60, 60, 60)" stroke-width="1px" opacity="0.25"></line><line x1="0" y1="147.5" x2="271.484375" y2="147.5" fill="rgb(0, 0, 0)" stroke="rgb(60, 60, 60)" stroke-width="1px" opacity="0.25"></line><line x1="0" y1="132.75" x2="271.484375" y2="132.75" fill="rgb(0, 0, 0)" stroke="rgb(60, 60, 60)" stroke-width="1px" opacity="0.25"></line><line x1="0" y1="118.00000000000003" x2="271.484375" y2="118.00000000000003" fill="rgb(0, 0, 0)" stroke="rgb(60, 60, 60)" stroke-width="1px" opacity="0.25"></line><line x1="0" y1="103.25" x2="271.484375" y2="103.25" fill="rgb(0, 0, 0)" stroke="rgb(60, 60, 60)" stroke-width="1px" opacity="0.25"></line><line x1="0" y1="88.5" x2="271.484375" y2="88.5" fill="rgb(0, 0, 0)" stroke="rgb(60, 60, 60)" stroke-width="1px" opacity="0.25"></line><line x1="0" y1="73.75000000000001" x2="271.484375" y2="73.75000000000001" fill="rgb(0, 0, 0)" stroke="rgb(60, 60, 60)" stroke-width="1px" opacity="0.25"></line><line x1="0" y1="59" x2="271.484375" y2="59" fill="rgb(0, 0, 0)" stroke="rgb(60, 60, 60)" stroke-width="1px" opacity="0.25"></line><line x1="0" y1="44.25000000000003" x2="271.484375" y2="44.25000000000003" fill="rgb(0, 0, 0)" stroke="rgb(60, 60, 60)" stroke-width="1px" opacity="0.25"></line><line x1="0" y1="29.5" x2="271.484375" y2="29.5" fill="rgb(0, 0, 0)" stroke="rgb(60, 60, 60)" stroke-width="1px" opacity="0.25"></line><line x1="0" y1="14.75" x2="271.484375" y2="14.75" fill="rgb(0, 0, 0)" stroke="rgb(60, 60, 60)" stroke-width="1px" opacity="0.25"></line><line x1="0" y1="0" x2="271.484375" y2="0" fill="rgb(0, 0, 0)" stroke="rgb(60, 60, 60)" stroke-width="1px" opacity="0.25"></line></g></g></g><g><g><line x1="0" y1="324.5" x2="271.484375" y2="324.5" fill="rgb(0, 0, 0)" stroke="rgb(153, 153, 153)" stroke-width="1.5px"></line></g></g><g><g><line x1="30.164930555555554" y1="0" x2="30.164930555555554" y2="177" fill="rgb(0, 0, 0)" stroke="rgb(153, 153, 153)" stroke-width="1.5px"></line></g></g><g><g><g><g><g><path stroke="rgb(0, 119, 187)" stroke-width="2px" d="M37.85698784722222,180.46746787287228L38.30946180555555,175.09330083194598L38.460286458333336,172.17477024923315L38.611111111111114,170.9874640901096L38.76193576388889,171.02066387149696L38.91276041666667,168.4333154481237L39.365234375,167.4794851223242L39.51605902777778,162.4557878036656L39.66688368055556,161.52482999945192L39.817708333333336,158.25775695035435L39.968532986111114,150.7329699428612L40.11935763888889,155.87099667595288L40.27018229166667,153.4015504541601L40.42100694444444,155.14159292606075L40.57183159722222,147.66582053863502L40.72265625,152.83840170600024L41.02430555555556,142.56107410901532L41.175130208333336,143.1478060072311L41.325954861111114,142.69120281723468L41.47677951388889,144.10979591765525L41.77842881944444,144.2396548774537L42.080078125,148.6824564909938L42.23090277777778,140.5013820208176L42.532552083333336,143.43622661023934L42.683376736111114,144.63503768631452L42.985026041666664,140.25869928412786L43.13585069444444,141.52463175089747L43.28667534722222,148.50886351893442L43.4375,152.56249774420962L43.58832465277778,144.97730945625278L43.73914930555556,143.98100275159544L44.04079861111111,137.1868571469006L44.191623263888886,130.65648615560855L44.342447916666664,131.2740748145624L44.49327256944444,130.83922046193476L44.794921875,136.6244027080818L45.24739583333333,132.00045411662717L45.39822048611111,125.25956849229621L45.549045138888886,130.9502445421994L45.699869791666664,129.74067094985924L46.00151909722222,133.23917260469338L46.15234375,125.26261585635747L46.30316840277777,124.86064355628014L46.755642361111114,120.22600204730267L46.90646701388889,124.79083268825424L47.35894097222223,114.08503600779497L47.81141493055556,113.49944789569005L47.962239583333336,109.60561159639556L48.113064236111114,106.86045700539347L48.26388888888889,114.49787426364101L48.41471354166667,113.79049886606163L48.8671875,107.20004983321911L49.01801215277778,104.29428679228948L49.16883680555556,103.11597301849909L49.319661458333336,104.89600931817174L49.470486111111114,99.18893636182726L49.772135416666664,96.90594826773429L49.92296006944444,89.20469228384998L50.37543402777778,89.86705619276036L50.827907986111114,96.42577212609086L50.978732638888886,96.69842100876416L51.28038194444444,92.53938743363004L51.58203125,84.38576855567668L51.73285590277778,85.59946579433326L51.88368055555556,92.54687172513479L52.034505208333336,93.09354705602526L52.18532986111111,93.47895316430304L52.336154513888886,90.26966260328493L52.63780381944444,87.13686358770227L52.78862847222222,84.92824028171647L52.939453125,86.85215753125618L53.09027777777778,83.85727334185705L53.39192708333333,80.8756256311716L53.54275173611111,79.64381835229743L53.693576388888886,82.25639090095086L53.99522569444444,83.22800537768659L54.14605034722222,80.43199171643137L54.296875,74.97980540498673L54.59852430555555,74.61701073567794L54.74934895833333,69.13974028633149L55.050998263888886,67.01876814676633L55.20182291666667,70.74498299585665L55.50347222222223,72.50171529440038L55.654296875,76.35095907506852L55.80512152777778,75.5836740730856L56.106770833333336,70.69149229636305L56.257595486111114,64.63175144648464L56.71006944444445,63.84063601467429L56.86089409722222,62.41265046518306L57.01171875,62.27616982285669L57.16254340277778,60.43944744279251L57.464192708333336,62.625560032201165L57.615017361111114,64.16676940773432L57.91666666666667,60.90207098006633L58.21831597222222,56.85996024843054L58.369140625,63.58302342752991L58.51996527777778,60.49053006402221L58.67078993055556,59.1805714128142L58.972439236111114,63.478550771196325L59.123263888888886,63.89787870866094L59.57573784722222,64.19350490457347L60.179036458333336,62.661423032561984L60.32986111111111,59.84080178556982L60.78233506944444,60.463016503729335L60.93315972222222,59.161174352807734L61.23480902777778,56.50287729627814L61.38563368055556,52.01803036123003L61.53645833333333,56.68846098969965L61.68728298611111,52.14886686509219L61.838107638888886,49.818702177308865L62.29058159722222,52.52718710984047L62.44140625,50.08541794985635L62.59223090277778,46.623467164843504L62.74305555555555,48.53404289882829L63.195529513888886,50.751247961352504L63.346354166666664,53.184631887591195L63.49717881944445,56.64066589571934L63.64800347222223,52.98542049390096L63.79882812499999,52.14897082574889L63.94965277777778,49.81877546957182L64.25130208333333,50.786735253661746L64.40212673611111,48.8583993912504L64.55295138888889,49.239420948380214L64.85460069444444,47.76754280602688L65.00542534722221,49.340616225862576L65.15625,48.709134646716905L65.30707465277777,50.004438473549044L65.45789930555556,49.17712933133589L65.60872395833333,47.72362721601064L65.75954861111111,48.43940656483619L66.06119791666667,50.684529345888066L66.21202256944444,48.786344226269904L66.513671875,46.5778745468742L67.11697048611111,43.28039989567617L67.26779513888889,40.08543109651666L67.56944444444444,42.184229130527996L67.72026909722221,45.40438008463585L67.87109375,43.32333546986308L68.02191840277777,42.7264533736074L68.17274305555556,44.91639900594191L68.32356770833333,42.97930880938381L68.47439236111111,46.83516042829416L68.77604166666667,43.461786442077255L69.228515625,41.083557781794326L69.37934027777777,44.628406783778615L69.53016493055556,45.38702699004773L69.68098958333333,45.92185423546741L69.98263888888889,46.29890744348833L70.28428819444444,43.083728087789126L70.5859375,42.55753016924527L70.88758680555556,42.18656063667183L71.18923611111111,40.184523588983495L71.34006076388889,43.994587677846965L71.49088541666666,40.588933482947056L71.64171006944444,42.539198312961446L71.79253472222221,43.91413501812161L72.09418402777777,39.661965187775735L72.24500868055556,40.145187324735815L72.54665798611111,38.74535540406862L72.69748263888889,38.62872307006316L72.84830729166666,37.676248104524376L73.14995659722221,37.87500242388447L73.9040798611111,38.01512421903334L74.20572916666666,39.85441361183737L74.35655381944444,43.761860143958955L74.658203125,42.16535891168584L74.80902777777777,41.91007990009243L74.95985243055554,39.98960466969504L75.11067708333333,42.116671499618775L75.2615017361111,43.61625361471502L75.41232638888889,42.062706308568835L75.56315104166666,43.57820815502481L75.71397569444444,42.03588425948726L75.86480034722221,41.818800270292456L76.01562500000001,39.925252530686066L76.6189236111111,41.201054071552505L76.7697482638889,40.35999063063932L77.07139756944446,38.89679173473061L77.52387152777779,36.994987343049985L78.1271701388889,38.26496794420416L78.27799479166667,40.03055343808279L78.42881944444444,40.40504204120231L78.57964409722223,40.669056506401546L78.88129340277779,39.98493234720786L79.03211805555556,38.632375644911406L79.18294270833334,40.28957586708137L79.33376736111111,39.717398496487135L79.4845920138889,41.05451697744226L79.63541666666667,40.25668197929156L80.087890625,37.953709965465464L80.23871527777779,39.81111656307198L80.54036458333334,37.63958634703067L80.84201388888889,40.45990858214043L81.14366319444444,39.83748306060377L81.4453125,39.39867306792041L81.74696180555556,39.08931202307869L81.89778645833334,40.61171601368932L82.04861111111111,40.81476165700488L82.19943576388889,39.21740530831829L82.35026041666667,38.09126908249425L82.50108506944444,39.03784657051236L82.65190972222223,37.964680172341076L82.802734375,38.078347031695216L82.95355902777779,40.76923486482892L83.25520833333333,39.185308919834256L83.55685763888889,38.068641128613024L83.70768229166667,39.892143033091L84.00933159722223,37.69671000839412L84.31098090277777,38.759682423271784L84.46180555555556,37.76857444853647L84.61263020833333,37.069843326348064L84.76345486111111,36.57723788520525L84.91427951388889,37.97045457642366L85.06510416666667,37.21216881650858L85.21592881944444,36.67757735576842L85.36675347222223,38.911443073235574L85.517578125,39.616069233985L85.66840277777777,37.50207798002435L85.81922743055556,36.881963316047035L86.12087673611111,37.31503164800796L86.27170138888889,35.87984648191056L86.57335069444444,34.86804093981186L86.875,34.15471803263233L87.02582465277777,34.52207455313567L87.17664930555556,36.52156442731453L87.32747395833333,37.9312047886107L87.47829861111111,38.05474688616533L87.77994791666666,39.01209842210045L87.93077256944444,36.20602938758083L88.232421875,36.83849822843928L88.38324652777777,36.41413959117958L88.53407118055556,35.244717581846515L88.68489583333333,36.160773405396554L88.83572048611111,35.06609442086955L89.13736979166666,35.16459490684289L89.28819444444444,36.104286919518984L89.43901909722221,40.24777165580957L89.58984375,41.42843005476462L90.04231770833333,37.909543188609064L90.34396701388889,36.298977118034315L90.49479166666666,36.03377720834408L90.79644097222221,35.84681127201242L90.947265625,34.84475111683372L91.09809027777777,35.878797047562585L91.39973958333333,33.99705191853164L91.5505642361111,35.281169112759585L91.85221354166666,35.31622256462535L92.15386284722221,33.600436908060885L92.9079861111111,34.131306360312806L93.0588107638889,36.246072851374464L93.51128472222223,39.47748156770277L93.66210937499999,40.88537554264934L93.81293402777779,41.877940794986614L93.96375868055556,38.22644826046559L94.11458333333334,36.5223951936932L94.26540798611111,37.93179047890763L94.56705729166667,37.184910627759734L94.86870659722223,35.78811116263557L95.17035590277779,37.414120237012014L95.47200520833334,37.69020227728828L95.92447916666667,37.014590945618096L96.07530381944444,36.53828495679062L96.52777777777779,37.942992761891304L96.67860243055556,37.19280823726322L96.82942708333334,37.53417731746535L96.98025173611111,36.03434417887797L97.28190104166667,35.84721098623885L97.43272569444444,35.71528208542824L97.88519965277779,34.752023040291846L98.03602430555556,34.94317458353564L98.18684895833334,34.20768725145754L98.33767361111111,34.55941785240742L98.79014756944444,33.06688958594725L98.94097222222223,32.01465715809286L99.24262152777779,31.272833296455445L99.39344618055556,34.230849341355054L99.54427083333333,38.05674899313908L99.69509548611111,36.402757210228L99.84592013888889,35.23669300327569L99.99674479166667,36.155116077504175L100.14756944444444,35.062106004705385L100.29839409722223,36.03203224351205L100.44921875,37.586084599029874L100.60004340277779,36.94118798244594L100.75086805555556,35.616286697689304L100.90169270833333,36.42272963206577L101.05251736111111,37.86152625796029L101.20334201388889,36.26512518192692L101.35416666666667,35.13966242332339L101.65581597222223,37.82721304586187L101.806640625,37.111183537462495L102.25911458333333,36.60638273404092L102.40993923611111,36.250498167628734L103.01323784722221,35.1293503782432L103.46571180555556,33.468692016661436L103.61653645833333,34.038426211876185L103.91818576388889,34.44008881950256L104.06901041666667,34.72326095787918L104.37065972222221,33.18239897530481L104.521484375,33.83658961771977L104.67230902777777,32.557295680492444L105.12478298611111,33.39589179487706L105.27560763888889,33.116852885453255L105.57725694444444,33.790379624374424L106.18055555555556,35.13546514537873L106.33138020833333,35.213501267621865L106.63302951388889,37.00902026102736L106.78385416666666,35.664108454089245L106.93467881944444,37.32669832748684L107.08550347222221,35.88807149094313L107.236328125,34.003590401114906L107.38715277777777,34.41552957291586L107.53797743055556,33.83569751897062L107.8396267361111,33.42691592093922L107.99045138888889,32.268475724262174L108.14127604166666,32.32202455566977L108.29210069444444,33.23002565187704L108.44292534722221,32.999917254638234L108.59375,35.44844353187389L108.74457465277777,38.9151528974549L109.1970486111111,37.00793196277064L109.34787326388889,35.66334120381822L109.49869791666666,36.455903058886605L110.40364583333334,35.27416082657999L110.7052951388889,36.181530892933694L110.85611979166667,35.950977619648114L111.00694444444446,35.788437561981794L111.15776909722223,35.67384682132703L111.30859375,33.85256200903555L111.45941840277779,35.179303726564825L111.61024305555556,36.11465663742297L111.76106770833334,35.90383126951306L111.91189236111111,34.01470104500669L112.0627170138889,36.16386610408361L112.21354166666667,34.198025603378966L112.36436631944444,34.55260639051204L112.51519097222223,33.93233667537592L112.666015625,32.62479735614005L112.81684027777779,35.18398400343264L112.96766493055556,35.247707062549864L113.11848958333334,34.422382649162586L113.4201388888889,36.451281635013544L113.57096354166667,34.40065355268456L113.72178819444444,33.825209924707536L114.0234375,34.28977133704868L114.32508680555556,32.87678879261932L114.62673611111111,31.88063609879663L114.77756076388889,33.789095959846435L115.23003472222223,34.26431099182159L115.380859375,32.85883924923422L115.53168402777779,32.73823084077509L115.83333333333334,32.65320191281137L115.98415798611111,32.593256518596974L116.13498263888889,33.421244185740704L116.43663194444444,33.13472632101215L116.58745659722223,32.06248205631357L116.73828125,33.917297359895855L116.88910590277779,33.484443808791525L117.19075520833333,33.179282055262945L117.34157986111111,32.96414301902533L117.49240451388889,31.94222082841287L117.64322916666667,34.702767551384966L117.79405381944444,35.77869863392121L117.94487847222223,40.01823191446314L118.095703125,37.78560266976146L118.24652777777777,36.21159905224678L118.39735243055556,34.23167733183399L118.69900173611111,35.44658002913772L118.84982638888889,34.56258809060702L119.00065104166667,33.93937377394289L119.453125,33.500007680694665L119.60394965277777,34.060503755019624L119.75477430555556,34.45565348741869L120.05642361111111,33.863984878695135L120.20724826388889,35.18735684967481L120.35807291666667,33.50958657902078L120.50889756944444,34.06725687833949L120.810546875,33.59016526929429L120.96137152777777,33.25381568491741L121.11219618055556,33.01668922793169L121.26302083333333,34.59001341588666L121.41384548611111,34.828957798329924L121.71549479166666,34.12716441788757L122.01714409722221,33.63240008467565L122.31879340277777,34.15384039982621L122.46961805555556,33.6512066519424L122.62044270833333,33.29684985968436L123.07291666666666,32.17677915107748L123.67621527777777,33.99787681170437L123.82703993055556,33.541252322316524L123.97786458333333,33.21933205729809L124.1286892361111,32.99237827046008L124.27951388888889,33.70262502080422L124.58116319444444,33.33309980973192L124.73198784722221,33.072584535925955L125.18446180555556,32.88892126789273L125.33528645833333,34.49993700405918L125.63693576388889,33.02495558786171L125.93858506944444,32.85534285950743L126.08940972222221,31.865516715952737L126.54188368055554,31.1676892847467L126.8435329861111,30.675720945746406L126.9943576388889,31.19913243681617L127.14518229166666,31.568137538020324L127.29600694444446,31.82828613436928L127.44683159722223,32.011690894795294L127.59765624999999,32.14099125089561L127.74848090277779,33.10239717201128L127.89930555555556,33.78018834639781L128.05013020833334,34.258031124340334L128.20095486111111,33.724661112724874L128.35177951388889,32.478386084471026L128.50260416666666,32.47001135961702L128.65342881944446,31.593858008529992L128.80425347222223,30.97616989601363L129.25672743055554,32.28119811681947L129.40755208333334,34.071492182552504L129.70920138888889,33.59315115876444L130.01085069444443,34.126169907058824L130.16167534722223,34.50194812460634L130.3125,33.8966225979124L130.46332465277777,32.599618931528255L130.61414930555554,33.425729686857295L130.76497395833334,34.008137769364254L130.91579861111111,33.54848629746675L131.06662326388889,34.094681179843946L131.21744791666666,33.60949940185489L131.51909722222223,34.13769541843757L131.669921875,33.63982444006342L131.82074652777777,34.15907457037457L131.97157118055554,33.654896742179005L132.12239583333334,34.169700543366076L132.42404513888889,35.40288639326786L132.57486979166666,35.40203324738371L132.72569444444443,33.66093343940551L132.87651909722223,34.173956414910776L133.02734375,32.7951392725121L133.17816840277777,31.823073187121025L133.32899305555554,31.13776659692033L133.47981770833331,33.26537296102359L133.63064236111111,32.154587937521626L133.78146701388889,32.241733666017694L133.93229166666666,31.432922234542474L134.08311631944443,31.732959345417356L134.23394097222223,32.8147346786491L134.68641493055554,33.577386288577515L134.98806423611111,32.37455733344714L135.28971354166666,36.74806312756402L135.7421875,34.60988450493264L135.89301215277777,33.1024685759775L136.04383680555554,34.650487856258906L136.19466145833334,34.00134310872747L136.34548611111111,32.67344689165287L136.49631076388889,31.737280058615283L136.64713541666666,31.077282441323774L136.79796006944446,33.22273163132806L136.94878472222223,32.99477497015121L137.099609375,31.963816353956616L137.25043402777777,32.10723969960435L137.40125868055554,32.208353158286L137.55208333333334,31.40938897659163L138.00455729166666,30.846119228497088L138.15538194444443,31.319263226155414L138.30620659722223,31.652829744504515L138.60785590277777,31.887994139940616L138.75868055555554,32.05378503872308L139.06032986111111,32.170667622364704L139.21115451388889,33.123319013896975L139.36197916666666,34.66518741499212L139.51280381944443,34.88195546769933L139.66362847222223,34.16452777479299L139.814453125,32.78849208122904L140.26692708333334,31.81838691726648L140.41775173611111,32.87496111680272L140.56857638888889,34.49009509754069L141.171875,34.758515383896054L141.32269965277777,34.94775168577658L141.62434895833331,34.21091410853742L141.77517361111111,32.82119444651889L141.92599826388889,32.71169125486074L142.07682291666666,31.764242334676823L142.37847222222223,31.096290845947152L142.68012152777777,31.495634216457688L142.83094618055554,31.77717129266759L142.98177083333331,32.84590410146052L143.28342013888889,32.72911156159461L143.43424479166666,33.517021991054065L143.58506944444443,32.33200050369311L143.73589409722223,31.49656035510364L143.88671875,31.77782422041301L144.03754340277777,31.105866075391162L144.18836805555554,30.632135583150756L144.33919270833331,32.90890309631607L144.79166666666666,33.6437750230327L144.94249131944443,33.291610561303L145.244140625,34.783832955913425L145.39496527777777,34.0953514039839L145.54578993055554,33.609971909873565L145.69661458333331,34.13802853659075L145.84743923611111,37.12106115571535L145.99826388888889,35.743097284844254L146.29991319444443,35.641881925945086L146.4507378472222,35.57052509792115L146.6015625,33.77972019403438L146.75238715277777,32.517202736794246L146.90321180555554,33.3676262695698L147.05403645833331,33.09692569011165L147.20486111111111,33.776330951658565L147.35568576388889,34.25531166104915L147.8081597222222,33.722743891104585L147.958984375,33.34728361329368L148.26063368055554,33.082584117436966L148.41145833333331,32.02572180279307L148.56228298611111,32.150883041034035L148.71310763888889,32.23912171399394L149.01475694444443,34.04182831856053L149.31640625,32.701988964585155L149.46723090277777,31.75740222003256L149.61805555555554,31.961717735187875L149.76888020833331,31.235511003307437L149.9197048611111,30.723535257331747L150.07052951388889,32.973339866613685L150.22135416666666,34.559452116157445L150.37217881944443,35.677661252085784L150.673828125,33.85525118272048L150.82465277777777,32.57045208381794L150.97547743055554,31.66466871909165L151.2771267361111,31.02609144695961L151.57877604166666,31.44614364017147L151.72960069444443,31.74228043638584L151.8804253472222,31.951056877716923L152.03125000000003,32.09824426885538L152.1820746527778,31.33176220954303L152.33289930555554,30.79139235772783L152.6345486111111,32.150929952328L152.7853732638889,31.36890561639123L152.93619791666669,31.687827629620756L153.2378472222222,32.782916819012485L153.38867187499997,33.554954697533674L153.69032118055557,32.35874306176123L154.1427951388889,33.255912198671524L154.44444444444446,33.018167270128345L154.59526909722223,32.85055709550542L154.74609375,32.73239192239626L155.19856770833334,34.38958381548417L155.34939236111111,33.817405759981256L155.65104166666669,33.41402023085169L155.80186631944446,33.12963343281538L156.103515625,32.05889157013485L156.2543402777778,33.044516897074914L156.40516493055557,31.99888441243783L156.70681423611111,33.872461020963414L156.85763888888889,33.45283418984414L157.31011284722223,33.156997273905034L157.4609375,34.68893058829781L157.76258680555557,34.89869440487982L157.91341145833334,33.30607955544028L158.06423611111111,33.92378442671526L158.21506076388889,33.489017190899204L158.51671006944446,32.31225711958396L158.66753472222223,32.352890439371635L158.818359375,32.38153692982192L158.9691840277778,31.531483535524444L159.27083333333334,31.802445062609678L159.57248263888889,32.8637221092697L159.87413194444446,33.611922427164984L160.02495659722223,32.39890531115131L160.17578125,31.543728244361688L160.32660590277777,30.94082841227501L160.47743055555557,33.126531540848646L161.08072916666669,32.056704736298315L161.23155381944446,32.17272600915524L161.38237847222223,32.254521006519354L161.533203125,31.44193730959617L161.68402777777777,30.8690658032653L161.98567708333334,31.335440561366966L162.13650173611111,32.534483935893576L162.28732638888889,32.5095603448699L162.43815104166669,32.491989213198224L162.58897569444446,31.60935239530474L162.73980034722223,31.857342608754777L162.890625,32.03217570923704L163.04144965277777,32.15543304507705L163.19227430555557,33.11257863690918L163.34309895833334,34.65761544921574L163.64474826388889,34.00636806176203L163.79557291666669,32.67698948354226L163.94639756944446,31.739777585897315L164.09722222222223,31.079043198057576L164.248046875,32.35372379476047L164.39887152777777,31.511875275306153L164.54969618055557,33.529119579285606L164.85134548611111,33.21077847346129L165.00217013888889,32.98634799385516L165.15299479166666,31.957875335667865L165.30381944444446,32.973300451775714L165.45464409722223,32.818925988566804L165.60546875,31.839842821939612L165.90711805555557,32.89008752959731L166.05794270833334,31.890011708366103L166.66124131944446,32.92545659452799L166.81206597222223,31.914946899142222L167.11371527777777,32.072786733960214L167.26453993055557,31.313814647441944L167.41536458333334,30.778739326446583L167.56618923611111,32.14200956527472L167.71701388888889,32.232865913583595L167.86783854166666,33.167168809206316L168.01866319444446,32.08535401049048L168.3203125,31.322674577395787L168.47113715277777,30.78498557706402L168.62196180555554,30.40591483183013L168.77278645833334,30.138669956440253L169.07443576388889,29.950262319290374L169.22526041666666,32.42818244529451L169.37608506944446,31.564368623932666L169.52690972222223,31.825629049937447L169.677734375,32.00981765027083L169.82855902777777,31.26942144344096L170.58268229166666,30.747442117625866L170.73350694444446,31.24969586299119L170.88433159722223,30.73353558340881L171.03515625,32.110140926433075L171.18598090277777,32.21039852320024L171.33680555555554,31.410830958856195L171.63845486111111,33.45788333618842L171.94010416666666,33.160556922077774L172.392578125,32.950941800129755L172.54340277777777,32.803163139156396L172.69422743055554,32.69897918317022L172.84505208333334,31.755280324135015L173.29752604166666,31.960221798580108L173.44835069444443,31.234456367998973L173.75,31.593040909504197L173.90082465277777,31.8458430112654L174.05164930555554,31.1538193229421L174.20247395833334,30.66594262267421L174.50412326388889,32.062487889115175L174.65494791666666,32.17680313189112L174.80577256944443,31.38714620798322L174.95659722222223,34.311439943982066L175.107421875,32.89206516050737L175.25824652777777,31.891405938157703L175.40907118055554,32.92643952653103L175.55989583333331,31.9156398662044L175.71072048611111,32.943524445803945L176.01236979166666,32.79793390435671L176.16319444444443,31.82504340257148L176.46484375,32.00940476887783L176.76649305555554,31.26913036205886L176.91731770833331,32.48773524538137L177.21896701388889,33.346851688123735L177.52061631944443,33.08227961019219L177.67144097222223,32.02550712518547L177.822265625,31.280482523255756L177.97309027777777,31.625489348960258L178.42556423611111,31.868719161081884L178.57638888888889,31.169947008562758L178.72721354166666,30.677312641036764L178.87803819444443,30.330005411930927L179.1796875,30.95540298547624L179.33051215277777,32.26655744489062L179.48133680555554,33.19092133877774L179.63216145833331,32.102099543838335L179.78298611111111,31.33448017840604L180.23546006944443,31.663557695841178L180.537109375,31.895557345632966L180.68793402777777,32.05911709873618L180.98958333333331,33.0446758947389L181.14040798611111,32.869245675855865L181.44205729166666,32.74556737154333L181.59288194444443,31.788124996938024L181.7437065972222,33.7238756330361L181.89453125,33.3480814913554L182.19618055555554,32.21289745140555L182.34700520833331,31.412592703240932L182.49782986111111,32.58887619591471L182.79947916666666,31.67765771811986L182.95030381944443,31.035248691274518L183.1011284722222,31.452599497413473L183.251953125,32.61708098580635L183.55360243055554,32.56779126505842L183.70442708333331,31.662792841866178L184.00607638888889,32.765267293645536L184.4585503472222,33.54251178214997L184.76019965277777,34.09046914654559L184.91102430555554,33.60652991837958L185.06184895833331,33.265352762522525L185.2126736111111,32.15457369757837L185.51432291666666,33.11197279692263L185.8159722222222,32.04644082183043L185.96679687500003,31.29524077939047L186.1176215277778,32.50614308960016L186.26844618055554,32.48958004823305L186.41927083333331,31.607653934004304L186.5700954861111,30.98589602347306L186.7209201388889,30.547556696548497L186.87174479166669,31.10877664113167L187.02256944444446,31.504436702062748L187.4750434027778,32.653626215084074L187.62586805555557,32.593555651699205L187.77669270833334,31.68095673444796L188.53081597222223,32.77807283791566L188.681640625,33.55153969086041L188.8324652777778,34.09683382218648L188.98328993055557,32.740767844641454L189.28493923611111,31.78474133047223L189.4357638888889,31.110742637982952L189.58658854166669,30.63557355977798L189.73741319444446,32.04107769977335L189.88823784722223,31.291459778340226L190.64236111111111,30.762979143729865L190.79318576388889,30.390400296329574L190.94401041666669,30.997981378977272L191.09483506944446,31.426326042243886L191.24565972222223,30.858059859781974L191.396484375,32.19793054127612L191.69813368055557,31.40204103159968L191.84895833333334,30.84093892727779L191.99978298611111,30.44536194373083L192.15060763888889,31.03672934039517L192.30143229166669,30.5833941849786L192.45225694444446,31.134042070474834L192.60308159722223,30.651999659684776L192.75390625,30.312159760077776L192.9047309027778,30.072572630854836L193.20638020833334,29.90366370475266L193.35720486111111,30.654832081915544L193.50802951388889,30.314156617750456L193.65885416666669,30.944229585579023L193.80967881944446,32.25868019796306L193.96050347222223,33.185367879693814L194.111328125,32.09818435518417L194.41297743055557,31.331719970404862L194.71462673611111,31.661611749200347L195.01627604166669,31.89418545325114L195.16710069444446,32.058149914607014L195.31792534722223,31.303495689797955L195.61957465277777,31.64171363137251L195.92122395833334,31.009908110117607L196.07204861111111,30.56448521763292L196.37369791666669,30.250462078431212L196.67534722222223,30.89932493535892L196.826171875,30.48652407942805L196.97699652777777,30.195499475996797L197.27864583333334,29.990327130577725L197.73111979166669,30.715929797122243L197.88194444444446,30.357230506971177L198.33441840277777,30.104347507414673L198.48524305555557,29.926064992727333L198.63606770833334,29.800375819872784L199.08854166666666,29.711764953010317L199.23936631944446,30.51954346193719L199.541015625,30.218778140665734L199.69184027777777,30.006738589169345L199.84266493055557,29.857250705364407L199.99348958333334,30.622110917346845L200.14431423611111,30.291088196729532L200.29513888888889,30.057717178694332L200.44596354166666,29.893190610979502L200.59678819444446,29.77719938074054L200.74761284722223,29.695425563422077L200.8984375,29.637775022212566L201.20008680555557,30.46738056072479L201.35091145833334,30.182003295310977L201.50173611111111,29.980812323194243L201.95421006944446,30.709221857916873L202.10503472222223,30.352501409831405L202.40668402777777,30.101013493931163L202.55750868055554,29.923714513221455L202.70833333333334,31.539217071950986L202.85915798611111,30.93764803572546L203.16080729166666,31.38379103525139L203.31163194444446,32.56857101998207L203.61328125,31.663342569087376L203.76410590277777,31.89540568127154L203.91493055555554,31.188761005296442L204.06575520833334,31.56082567879892L204.21657986111111,30.952882103553236L204.36740451388889,30.524281883005045L204.51822916666666,31.96261706764841L204.66905381944446,32.10639420275706L204.81987847222223,31.33750791294375L204.970703125,32.535941418755215L205.12152777777777,31.640338700222458L205.27235243055554,33.6196862938516L205.42317708333334,33.27462800723029L205.57400173611111,33.03136191516231L205.87565104166666,32.85985932025437L206.02647569444443,31.86870082077934L206.17730034722223,31.169934078649447L206.328125,31.547552695512763L206.62977430555554,31.81377382040145L206.78059895833334,31.13121054338302L207.38389756944443,30.650003433085033L207.83637152777777,32.05125076045482L208.28884548611111,31.298631786120666L208.43967013888889,32.508533749344934L208.59049479166666,32.4912654633531L208.74131944444443,32.47909132172887L209.04296875,32.47050855188377L209.19379340277777,32.464457699143L209.34461805555554,31.589942677895806L209.49544270833331,30.973409587916592L209.64626736111111,30.53875375948118L209.94791666666666,30.232321400434273L210.09874131944443,30.886535757371092L210.24956597222223,32.21800604907651L210.400390625,32.28644343466388L210.55121527777777,31.464442621438053L210.70203993055554,30.884932048113825L210.85286458333331,33.08712460411505L211.00368923611111,32.02892284590109L211.15451388888889,32.153139776425206L211.30533854166666,31.370463542379753L211.45616319444443,30.818676797377748L211.7578125,31.299916312216226L211.90863715277777,33.37968851030726L212.21028645833331,32.23518039976662L212.36111111111111,33.16880052196535L212.51193576388889,34.69725187818037L212.81358506944443,33.16406257411717L212.96440972222223,32.95341328481754L213.115234375,31.93465636579637L213.26605902777777,31.216432737886493L213.41688368055554,31.580334250274888L213.56770833333331,31.836884816508757L214.17100694444443,32.88800213576852L214.47265625,32.75879067578174L214.92513020833331,31.797447426426146L215.07595486111111,31.11970043563042L215.22677951388889,32.38238714724932L215.37760416666666,31.53208293881076L215.52842881944443,30.932618471861588L215.6792534722222,30.50999602266242L215.98090277777777,30.21204719597702L216.13172743055554,31.74249161329368L216.28255208333331,31.080956587372043L216.43337673611111,30.614574394097303L216.58420138888889,30.285774947838632L216.73502604166666,30.053971338226233L216.88585069444443,29.89054979344948L217.0366753472222,30.645586774446855L217.1875,30.307638675985032L217.33832465277777,30.06938526656944L217.63997395833331,30.771665782996365L217.7907986111111,30.39652437701247L217.94162326388889,31.872548025923663L218.24327256944443,31.172646358276182L218.3940972222222,30.679215682584726L218.544921875,30.331347056222228L218.69574652777777,30.95634884470161L218.84657118055554,30.526725935514634L218.99739583333331,30.223841784537797L219.29904513888889,30.880557628164098L219.44986979166666,30.47329312785567L219.60069444444443,31.926669995268128L219.7515190972222,31.210802346664025L219.90234375000003,31.5763648244631L220.0531684027778,31.83408637131143L220.20399305555554,31.14553089177457L220.5056423611111,31.530348448766006L220.6564670138889,31.801644826444942L220.80729166666669,31.122659602643694L220.95811631944446,31.51422418992874L221.1089409722222,31.790277223964694L221.25976562499997,32.85514378302497L221.4105902777778,31.86537636703261L221.56141493055557,31.167590338758004L221.71223958333334,31.545900358889355L222.0138888888889,30.942359753017L222.16471354166669,33.12761113607175L222.46636284722223,32.05746585093061L223.06966145833334,31.303013424906084L223.22048611111111,31.641373634623733L223.52213541666669,31.009668412409724L223.67296006944446,30.56431623074883L223.82378472222223,31.120592112742855L224.1254340277778,30.642517439483754L224.42708333333334,30.305474794836044L224.57790798611111,30.06785973035943L224.72873263888889,31.64083945003324L225.03038194444446,31.87954098233837L225.18120659722223,31.17757639254856L225.33203125,30.682691356746744L225.4828559027778,31.204046576571386L225.78450520833334,30.701352836482812L225.93532986111111,30.34695374972037L226.08615451388889,31.837600733682763L226.23697916666669,31.148008517246353L226.38780381944446,30.661846004658656L226.689453125,32.92984894347913L226.8402777777778,31.91804350515281L226.99110243055557,31.204720671132748L227.29275173611111,30.70182807314862L227.44357638888889,30.347288791569753L227.89605034722223,30.097338598056695L228.19769965277777,29.921123711630003L228.34852430555557,31.537390556829024L228.65017361111111,30.936360342564456L228.80099826388889,30.512634041507965L228.95182291666669,30.213906999263116L229.10264756944446,30.003304434480498L229.25347222222223,29.85482962630877L229.404296875,30.620404056612614L229.55512152777777,30.289884859911893L229.70594618055557,30.927117996302854L230.00759548611111,31.376367357458435L230.15842013888889,30.822838987008197L230.30924479166669,30.43260148584082L230.46006944444446,30.157484047517784L230.61089409722223,30.833775423564987L230.76171875,31.310560843678246L230.91254340277777,30.77644539479317L231.21419270833334,31.270143173394132L231.36501736111111,30.747950937242877L231.51584201388889,31.25005458082117L231.66666666666669,31.60403764954387L231.81749131944446,31.853595712993382L231.96831597222223,31.15928497766035L232.42078993055557,30.669795909250553L232.72243923611111,30.324706116021645L232.87326388888889,30.08141781179529L233.02408854166666,29.90989955731567L233.17491319444446,29.788979187907557L233.32573784722223,29.703730327474858L233.4765625,30.51387905093472L233.62738715277777,31.085033900973883L233.77821180555557,30.617448900186616L233.92903645833334,30.28780147463158L234.07986111111111,30.925649209680188L234.53233506944446,31.37533186288948L234.68315972222223,31.692358133401996L235.13563368055557,31.91586165411337L235.28645833333334,32.94368080627979L235.43728298611111,33.66829330855711L235.58810763888889,32.43864678253277L235.73893229166666,31.57174598168561L235.88975694444446,30.96058091708835L236.19140625,31.399958716612247L236.34223090277777,30.839470895211633L236.49305555555554,30.44432698112422L236.64388020833334,30.165750521692587L236.79470486111111,29.969354117793245L236.94552951388889,29.830894653044254L237.09635416666666,30.603529900461126L237.39800347222223,33.75899044717903L237.548828125,34.243086605391056L237.69965277777777,34.58437439693057L238.00130208333334,33.084483949836056L238.15212673611111,33.767559524764295L238.30295138888889,34.249127805088676L238.60460069444446,32.84813510258755L238.75542534722223,31.860435247324233L239.05707465277777,31.164106849363606L239.20789930555554,31.54344449886625L239.35872395833334,30.94062837170071L239.50954861111111,30.515643002049018L239.66037326388889,30.21602831644455L239.81119791666666,30.004799963093404L240.11284722222223,30.726133144045775L240.263671875,31.23467303661721L240.71614583333334,31.593193660880047L241.01779513888889,31.845950700985384L241.47026909722223,31.153895244194672" style="fill: none;" fill="none"></path></g></g></g></g><g opacity="0.2"><g><g><g><path stroke="rgb(0, 119, 187)" stroke-width="2px" d="M35.74544270833333,179.94999718666077L36.197916666666664,168.1500084400177L36.34874131944444,212.40000140666962L37.25368923611111,191.75000351667404L37.404513888888886,174.05000281333923L37.70616319444444,174.05000281333923L37.85698784722222,174.05000281333923L38.30946180555555,162.24999648332596L38.460286458333336,165.19999366998672L38.611111111111114,168.1500084400177L38.76193576388889,171.10000562667847L38.91276041666667,162.24999648332596L39.365234375,165.19999366998672L39.51605902777778,150.4500077366829L39.66688368055556,159.2999992966652L39.817708333333336,150.4500077366829L39.968532986111114,132.75000703334808L40.11935763888889,168.1500084400177L40.27018229166667,147.49999296665192L40.42100694444444,159.2999992966652L40.57183159722222,129.7999922633171L40.72265625,165.19999366998672L41.02430555555556,118.00000351667404L41.175130208333336,144.54999577999115L41.325954861111114,141.59999859333038L41.47677951388889,147.49999296665192L41.77842881944444,144.54999577999115L42.080078125,159.2999992966652L42.23090277777778,120.95000070333481L42.532552083333336,150.4500077366829L42.683376736111114,147.49999296665192L42.985026041666664,129.7999922633171L43.13585069444444,144.54999577999115L43.28667534722222,165.19999366998672L43.4375,162.24999648332596L43.58832465277778,126.84999507665634L43.73914930555556,141.59999859333038L44.04079861111111,120.95000070333481L44.191623263888886,115.05000633001328L44.342447916666664,132.75000703334808L44.49327256944444,129.7999922633171L44.794921875,150.4500077366829L45.24739583333333,120.95000070333481L45.39822048611111,109.14999437332153L45.549045138888886,144.54999577999115L45.699869791666664,126.84999507665634L46.00151909722222,141.59999859333038L46.15234375,106.19999718666077L46.30316840277777,123.89999788999557L46.755642361111114,109.14999437332153L46.90646701388889,135.70000422000885L47.35894097222223,88.49999648332597L47.81141493055556,112.0999915599823L47.962239583333336,100.30000281333923L48.113064236111114,100.30000281333923L48.26388888888889,132.75000703334808L48.41471354166667,112.0999915599823L48.8671875,91.44999366998674L49.01801215277778,97.35000562667848L49.16883680555556,100.30000281333923L49.319661458333336,109.14999437332153L49.470486111111114,85.5499992966652L49.772135416666664,91.44999366998674L49.92296006944444,70.79999577999116L50.37543402777778,91.44999366998674L50.827907986111114,112.0999915599823L50.978732638888886,97.35000562667848L51.28038194444444,82.60000211000444L51.58203125,64.90000140666963L51.73285590277778,88.49999648332597L51.88368055555556,109.14999437332153L52.034505208333336,94.40000844001771L52.18532986111111,94.40000844001771L52.336154513888886,82.60000211000444L52.63780381944444,79.65000492334367L52.78862847222222,79.65000492334367L52.939453125,91.44999366998674L53.09027777777778,76.7000077366829L53.39192708333333,73.74999296665193L53.54275173611111,76.7000077366829L53.693576388888886,88.49999648332597L53.99522569444444,85.5499992966652L54.14605034722222,73.74999296665193L54.296875,61.950004220008864L54.59852430555555,73.74999296665193L54.74934895833333,56.04999226331714L55.050998263888886,61.950004220008864L55.20182291666667,79.65000492334367L55.50347222222223,76.7000077366829L55.654296875,85.5499992966652L55.80512152777778,73.74999296665193L56.106770833333336,59.0000070333481L56.257595486111114,50.1499978899956L56.71006944444445,61.950004220008864L56.86089409722222,59.0000070333481L57.01171875,61.950004220008864L57.16254340277778,56.04999226331714L57.464192708333336,67.8499985933304L57.615017361111114,67.8499985933304L57.91666666666667,53.09999507665637L58.21831597222222,47.20000070333484L58.369140625,79.65000492334367L58.51996527777778,53.09999507665637L58.67078993055556,56.04999226331714L58.972439236111114,73.74999296665193L59.123263888888886,64.90000140666963L59.57573784722222,64.90000140666963L60.179036458333336,59.0000070333481L60.32986111111111,53.09999507665637L60.78233506944444,61.950004220008864L60.93315972222222,56.04999226331714L61.23480902777778,50.1499978899956L61.38563368055556,41.300006330013304L61.53645833333333,67.8499985933304L61.68728298611111,41.300006330013304L61.838107638888886,44.25000351667407L62.29058159722222,59.0000070333481L62.44140625,44.25000351667407L62.59223090277778,38.3499915599823L62.74305555555555,53.09999507665637L63.195529513888886,56.04999226331714L63.346354166666664,59.0000070333481L63.49717881944445,64.90000140666963L63.64800347222223,44.25000351667407L63.79882812499999,50.1499978899956L63.94965277777778,44.25000351667407L64.25130208333333,53.09999507665637L64.40212673611111,44.25000351667407L64.55295138888889,50.1499978899956L64.85460069444444,44.25000351667407L65.00542534722221,53.09999507665637L65.15625,47.20000070333484L65.30707465277777,53.09999507665637L65.45789930555556,47.20000070333484L65.60872395833333,44.25000351667407L65.75954861111111,50.1499978899956L66.06119791666667,56.04999226331714L66.21202256944444,44.25000351667407L66.513671875,41.300006330013304L67.11697048611111,35.39999437332153L67.26779513888889,32.44999718666077L67.56944444444444,47.20000070333484L67.72026909722221,53.09999507665637L67.87109375,38.3499915599823L68.02191840277777,41.300006330013304L68.17274305555556,50.1499978899956L68.32356770833333,38.3499915599823L68.47439236111111,56.04999226331714L68.77604166666667,35.39999437332153L69.228515625,35.39999437332153L69.37934027777777,53.09999507665637L69.53016493055556,47.20000070333484L69.68098958333333,47.20000070333484L69.98263888888889,47.20000070333484L70.28428819444444,35.39999437332153L70.5859375,41.300006330013304L70.88758680555556,41.300006330013304L71.18923611111111,35.39999437332153L71.34006076388889,53.09999507665637L71.49088541666666,32.44999718666077L71.64171006944444,47.20000070333484L71.79253472222221,47.20000070333484L72.09418402777777,29.5L72.24500868055556,41.300006330013304L72.54665798611111,35.39999437332153L72.69748263888889,38.3499915599823L72.84830729166666,35.39999437332153L73.14995659722221,38.3499915599823L73.9040798611111,38.3499915599823L74.20572916666666,44.25000351667407L74.35655381944444,53.09999507665637L74.658203125,38.3499915599823L74.80902777777777,41.300006330013304L74.95985243055554,35.39999437332153L75.11067708333333,47.20000070333484L75.2615017361111,47.20000070333484L75.41232638888889,38.3499915599823L75.56315104166666,47.20000070333484L75.71397569444444,38.3499915599823L75.86480034722221,41.300006330013304L76.01562500000001,35.39999437332153L76.6189236111111,44.25000351667407L76.7697482638889,38.3499915599823L77.07139756944446,35.39999437332153L77.52387152777779,32.44999718666077L78.1271701388889,41.300006330013304L78.27799479166667,44.25000351667407L78.42881944444444,41.300006330013304L78.57964409722223,41.300006330013304L78.88129340277779,38.3499915599823L79.03211805555556,35.39999437332153L79.18294270833334,44.25000351667407L79.33376736111111,38.3499915599823L79.4845920138889,44.25000351667407L79.63541666666667,38.3499915599823L80.087890625,32.44999718666077L80.23871527777779,44.25000351667407L80.54036458333334,32.44999718666077L80.84201388888889,47.20000070333484L81.14366319444444,38.3499915599823L81.4453125,38.3499915599823L81.74696180555556,38.3499915599823L81.89778645833334,44.25000351667407L82.04861111111111,41.300006330013304L82.19943576388889,35.39999437332153L82.35026041666667,35.39999437332153L82.50108506944444,41.300006330013304L82.65190972222223,35.39999437332153L82.802734375,38.3499915599823L82.95355902777779,47.20000070333484L83.25520833333333,35.39999437332153L83.55685763888889,35.39999437332153L83.70768229166667,44.25000351667407L84.00933159722223,32.44999718666077L84.31098090277777,41.300006330013304L84.46180555555556,35.39999437332153L84.61263020833333,35.39999437332153L84.76345486111111,35.39999437332153L84.91427951388889,41.300006330013304L85.06510416666667,35.39999437332153L85.21592881944444,35.39999437332153L85.36675347222223,44.25000351667407L85.517578125,41.300006330013304L85.66840277777777,32.44999718666077L85.81922743055556,35.39999437332153L86.12087673611111,38.3499915599823L86.27170138888889,32.44999718666077L86.57335069444444,32.44999718666077L86.875,32.44999718666077L87.02582465277777,35.39999437332153L87.17664930555556,41.300006330013304L87.32747395833333,41.300006330013304L87.47829861111111,38.3499915599823L87.77994791666666,41.300006330013304L87.93077256944444,29.5L88.232421875,38.3499915599823L88.38324652777777,35.39999437332153L88.53407118055556,32.44999718666077L88.68489583333333,38.3499915599823L88.83572048611111,32.44999718666077L89.13736979166666,35.39999437332153L89.28819444444444,38.3499915599823L89.43901909722221,50.1499978899956L89.58984375,44.25000351667407L90.04231770833333,29.5L90.34396701388889,32.44999718666077L90.49479166666666,35.39999437332153L90.79644097222221,35.39999437332153L90.947265625,32.44999718666077L91.09809027777777,38.3499915599823L91.39973958333333,29.5L91.5505642361111,38.3499915599823L91.85221354166666,35.39999437332153L92.15386284722221,29.5L92.9079861111111,35.39999437332153L93.0588107638889,41.300006330013304L93.51128472222223,47.20000070333484L93.66210937499999,44.25000351667407L93.81293402777779,44.25000351667407L93.96375868055556,29.5L94.11458333333334,32.44999718666077L94.26540798611111,41.300006330013304L94.56705729166667,35.39999437332153L94.86870659722223,32.44999718666077L95.17035590277779,41.300006330013304L95.47200520833334,38.3499915599823L95.92447916666667,35.39999437332153L96.07530381944444,35.39999437332153L96.52777777777779,41.300006330013304L96.67860243055556,35.39999437332153L96.82942708333334,38.3499915599823L96.98025173611111,32.44999718666077L97.28190104166667,35.39999437332153L97.43272569444444,35.39999437332153L97.88519965277779,32.44999718666077L98.03602430555556,35.39999437332153L98.18684895833334,32.44999718666077L98.33767361111111,35.39999437332153L98.79014756944444,29.5L98.94097222222223,29.5L99.24262152777779,29.5L99.39344618055556,41.300006330013304L99.54427083333333,47.20000070333484L99.69509548611111,32.44999718666077L99.84592013888889,32.44999718666077L99.99674479166667,38.3499915599823L100.14756944444444,32.44999718666077L100.29839409722223,38.3499915599823L100.44921875,41.300006330013304L100.60004340277779,35.39999437332153L100.75086805555556,32.44999718666077L100.90169270833333,38.3499915599823L101.05251736111111,41.300006330013304L101.20334201388889,32.44999718666077L101.35416666666667,32.44999718666077L101.65581597222223,44.25000351667407L101.806640625,35.39999437332153L102.25911458333333,35.39999437332153L102.40993923611111,35.39999437332153L103.01323784722221,32.44999718666077L103.46571180555556,29.5L103.61653645833333,35.39999437332153L103.91818576388889,35.39999437332153L104.06901041666667,35.39999437332153L104.37065972222221,29.5L104.521484375,35.39999437332153L104.67230902777777,29.5L105.12478298611111,35.39999437332153L105.27560763888889,32.44999718666077L105.57725694444444,35.39999437332153L106.18055555555556,38.3499915599823L106.33138020833333,35.39999437332153L106.63302951388889,41.300006330013304L106.78385416666666,32.44999718666077L106.93467881944444,41.300006330013304L107.08550347222221,32.44999718666077L107.236328125,29.5L107.38715277777777,35.39999437332153L107.53797743055556,32.44999718666077L107.8396267361111,32.44999718666077L107.99045138888889,29.5L108.14127604166666,32.44999718666077L108.29210069444444,35.39999437332153L108.44292534722221,32.44999718666077L108.59375,41.300006330013304L108.74457465277777,47.20000070333484L109.1970486111111,32.44999718666077L109.34787326388889,32.44999718666077L109.49869791666666,38.3499915599823L110.40364583333334,32.44999718666077L110.7052951388889,38.3499915599823L110.85611979166667,35.39999437332153L111.00694444444446,35.39999437332153L111.15776909722223,35.39999437332153L111.30859375,29.5L111.45941840277779,38.3499915599823L111.61024305555556,38.3499915599823L111.76106770833334,35.39999437332153L111.91189236111111,29.5L112.0627170138889,41.300006330013304L112.21354166666667,29.5L112.36436631944444,35.39999437332153L112.51519097222223,32.44999718666077L112.666015625,29.5L112.81684027777779,41.300006330013304L112.96766493055556,35.39999437332153L113.11848958333334,32.44999718666077L113.4201388888889,41.300006330013304L113.57096354166667,29.5L113.72178819444444,32.44999718666077L114.0234375,35.39999437332153L114.32508680555556,29.5L114.62673611111111,29.5L114.77756076388889,38.3499915599823L115.23003472222223,35.39999437332153L115.380859375,29.5L115.53168402777779,32.44999718666077L115.83333333333334,32.44999718666077L115.98415798611111,32.44999718666077L116.13498263888889,35.39999437332153L116.43663194444444,32.44999718666077L116.58745659722223,29.5L116.73828125,38.3499915599823L116.88910590277779,32.44999718666077L117.19075520833333,32.44999718666077L117.34157986111111,32.44999718666077L117.49240451388889,29.5L117.64322916666667,41.300006330013304L117.79405381944444,38.3499915599823L117.94487847222223,50.1499978899956L118.095703125,32.44999718666077L118.24652777777777,32.44999718666077L118.39735243055556,29.5L118.69900173611111,38.3499915599823L118.84982638888889,32.44999718666077L119.00065104166667,32.44999718666077L119.453125,32.44999718666077L119.60394965277777,35.39999437332153L119.75477430555556,35.39999437332153L120.05642361111111,32.44999718666077L120.20724826388889,38.3499915599823L120.35807291666667,29.5L120.50889756944444,35.39999437332153L120.810546875,32.44999718666077L120.96137152777777,32.44999718666077L121.11219618055556,32.44999718666077L121.26302083333333,38.3499915599823L121.41384548611111,35.39999437332153L121.71549479166666,32.44999718666077L122.01714409722221,32.44999718666077L122.31879340277777,35.39999437332153L122.46961805555556,32.44999718666077L122.62044270833333,32.44999718666077L123.07291666666666,29.5L123.67621527777777,38.3499915599823L123.82703993055556,32.44999718666077L123.97786458333333,32.44999718666077L124.1286892361111,32.44999718666077L124.27951388888889,35.39999437332153L124.58116319444444,32.44999718666077L124.73198784722221,32.44999718666077L125.18446180555556,32.44999718666077L125.33528645833333,38.3499915599823L125.63693576388889,29.5L125.93858506944444,32.44999718666077L126.08940972222221,29.5L126.54188368055554,29.5L126.8435329861111,29.5L126.9943576388889,32.44999718666077L127.14518229166666,32.44999718666077L127.29600694444446,32.44999718666077L127.44683159722223,32.44999718666077L127.59765624999999,32.44999718666077L127.74848090277779,35.39999437332153L127.89930555555556,35.39999437332153L128.05013020833334,35.39999437332153L128.20095486111111,32.44999718666077L128.35177951388889,29.5L128.50260416666666,32.44999718666077L128.65342881944446,29.5L128.80425347222223,29.5L129.25672743055554,35.39999437332153L129.40755208333334,38.3499915599823L129.70920138888889,32.44999718666077L130.01085069444443,35.39999437332153L130.16167534722223,35.39999437332153L130.3125,32.44999718666077L130.46332465277777,29.5L130.61414930555554,35.39999437332153L130.76497395833334,35.39999437332153L130.91579861111111,32.44999718666077L131.06662326388889,35.39999437332153L131.21744791666666,32.44999718666077L131.51909722222223,35.39999437332153L131.669921875,32.44999718666077L131.82074652777777,35.39999437332153L131.97157118055554,32.44999718666077L132.12239583333334,35.39999437332153L132.42404513888889,38.3499915599823L132.57486979166666,35.39999437332153L132.72569444444443,29.5L132.87651909722223,35.39999437332153L133.02734375,29.5L133.17816840277777,29.5L133.32899305555554,29.5L133.47981770833331,38.3499915599823L133.63064236111111,29.5L133.78146701388889,32.44999718666077L133.93229166666666,29.5L134.08311631944443,32.44999718666077L134.23394097222223,35.39999437332153L134.68641493055554,35.39999437332153L134.98806423611111,29.5L135.28971354166666,47.20000070333484L135.7421875,29.5L135.89301215277777,29.5L136.04383680555554,38.3499915599823L136.19466145833334,32.44999718666077L136.34548611111111,29.5L136.49631076388889,29.5L136.64713541666666,29.5L136.79796006944446,38.3499915599823L136.94878472222223,32.44999718666077L137.099609375,29.5L137.25043402777777,32.44999718666077L137.40125868055554,32.44999718666077L137.55208333333334,29.5L138.00455729166666,29.5L138.15538194444443,32.44999718666077L138.30620659722223,32.44999718666077L138.60785590277777,32.44999718666077L138.75868055555554,32.44999718666077L139.06032986111111,32.44999718666077L139.21115451388889,35.39999437332153L139.36197916666666,38.3499915599823L139.51280381944443,35.39999437332153L139.66362847222223,32.44999718666077L139.814453125,29.5L140.26692708333334,29.5L140.41775173611111,35.39999437332153L140.56857638888889,38.3499915599823L141.171875,35.39999437332153L141.32269965277777,35.39999437332153L141.62434895833331,32.44999718666077L141.77517361111111,29.5L141.92599826388889,32.44999718666077L142.07682291666666,29.5L142.37847222222223,29.5L142.68012152777777,32.44999718666077L142.83094618055554,32.44999718666077L142.98177083333331,35.39999437332153L143.28342013888889,32.44999718666077L143.43424479166666,35.39999437332153L143.58506944444443,29.5L143.73589409722223,29.5L143.88671875,32.44999718666077L144.03754340277777,29.5L144.18836805555554,29.5L144.33919270833331,38.3499915599823L144.79166666666666,35.39999437332153L144.94249131944443,32.44999718666077L145.244140625,38.3499915599823L145.39496527777777,32.44999718666077L145.54578993055554,32.44999718666077L145.69661458333331,35.39999437332153L145.84743923611111,44.25000351667407L145.99826388888889,32.44999718666077L146.29991319444443,35.39999437332153L146.4507378472222,35.39999437332153L146.6015625,29.5L146.75238715277777,29.5L146.90321180555554,35.39999437332153L147.05403645833331,32.44999718666077L147.20486111111111,35.39999437332153L147.35568576388889,35.39999437332153L147.8081597222222,32.44999718666077L147.958984375,32.44999718666077L148.26063368055554,32.44999718666077L148.41145833333331,29.5L148.56228298611111,32.44999718666077L148.71310763888889,32.44999718666077L149.01475694444443,38.3499915599823L149.31640625,29.5L149.46723090277777,29.5L149.61805555555554,32.44999718666077L149.76888020833331,29.5L149.9197048611111,29.5L150.07052951388889,38.3499915599823L150.22135416666666,38.3499915599823L150.37217881944443,38.3499915599823L150.673828125,29.5L150.82465277777777,29.5L150.97547743055554,29.5L151.2771267361111,29.5L151.57877604166666,32.44999718666077L151.72960069444443,32.44999718666077L151.8804253472222,32.44999718666077L152.03125000000003,32.44999718666077L152.1820746527778,29.5L152.33289930555554,29.5L152.6345486111111,35.39999437332153L152.7853732638889,29.5L152.93619791666669,32.44999718666077L153.2378472222222,35.39999437332153L153.38867187499997,35.39999437332153L153.69032118055557,29.5L154.1427951388889,35.39999437332153L154.44444444444446,32.44999718666077L154.59526909722223,32.44999718666077L154.74609375,32.44999718666077L155.19856770833334,38.3499915599823L155.34939236111111,32.44999718666077L155.65104166666669,32.44999718666077L155.80186631944446,32.44999718666077L156.103515625,29.5L156.2543402777778,35.39999437332153L156.40516493055557,29.5L156.70681423611111,38.3499915599823L156.85763888888889,32.44999718666077L157.31011284722223,32.44999718666077L157.4609375,38.3499915599823L157.76258680555557,35.39999437332153L157.91341145833334,29.5L158.06423611111111,35.39999437332153L158.21506076388889,32.44999718666077L158.51671006944446,29.5L158.66753472222223,32.44999718666077L158.818359375,32.44999718666077L158.9691840277778,29.5L159.27083333333334,32.44999718666077L159.57248263888889,35.39999437332153L159.87413194444446,35.39999437332153L160.02495659722223,29.5L160.17578125,29.5L160.32660590277777,29.5L160.47743055555557,38.3499915599823L161.08072916666669,29.5L161.23155381944446,32.44999718666077L161.38237847222223,32.44999718666077L161.533203125,29.5L161.68402777777777,29.5L161.98567708333334,32.44999718666077L162.13650173611111,35.39999437332153L162.28732638888889,32.44999718666077L162.43815104166669,32.44999718666077L162.58897569444446,29.5L162.73980034722223,32.44999718666077L162.890625,32.44999718666077L163.04144965277777,32.44999718666077L163.19227430555557,35.39999437332153L163.34309895833334,38.3499915599823L163.64474826388889,32.44999718666077L163.79557291666669,29.5L163.94639756944446,29.5L164.09722222222223,29.5L164.248046875,35.39999437332153L164.39887152777777,29.5L164.54969618055557,38.3499915599823L164.85134548611111,32.44999718666077L165.00217013888889,32.44999718666077L165.15299479166666,29.5L165.30381944444446,35.39999437332153L165.45464409722223,32.44999718666077L165.60546875,29.5L165.90711805555557,35.39999437332153L166.05794270833334,29.5L166.66124131944446,35.39999437332153L166.81206597222223,29.5L167.11371527777777,32.44999718666077L167.26453993055557,29.5L167.41536458333334,29.5L167.56618923611111,35.39999437332153L167.71701388888889,32.44999718666077L167.86783854166666,35.39999437332153L168.01866319444446,29.5L168.3203125,29.5L168.47113715277777,29.5L168.62196180555554,29.5L168.77278645833334,29.5L169.07443576388889,29.5L169.22526041666666,38.3499915599823L169.37608506944446,29.5L169.52690972222223,32.44999718666077L169.677734375,32.44999718666077L169.82855902777777,29.5L170.58268229166666,29.5L170.73350694444446,32.44999718666077L170.88433159722223,29.5L171.03515625,35.39999437332153L171.18598090277777,32.44999718666077L171.33680555555554,29.5L171.63845486111111,38.3499915599823L171.94010416666666,32.44999718666077L172.392578125,32.44999718666077L172.54340277777777,32.44999718666077L172.69422743055554,32.44999718666077L172.84505208333334,29.5L173.29752604166666,32.44999718666077L173.44835069444443,29.5L173.75,32.44999718666077L173.90082465277777,32.44999718666077L174.05164930555554,29.5L174.20247395833334,29.5L174.50412326388889,35.39999437332153L174.65494791666666,32.44999718666077L174.80577256944443,29.5L174.95659722222223,41.300006330013304L175.107421875,29.5L175.25824652777777,29.5L175.40907118055554,35.39999437332153L175.55989583333331,29.5L175.71072048611111,35.39999437332153L176.01236979166666,32.44999718666077L176.16319444444443,29.5L176.46484375,32.44999718666077L176.76649305555554,29.5L176.91731770833331,35.39999437332153L177.21896701388889,35.39999437332153L177.52061631944443,32.44999718666077L177.67144097222223,29.5L177.822265625,29.5L177.97309027777777,32.44999718666077L178.42556423611111,32.44999718666077L178.57638888888889,29.5L178.72721354166666,29.5L178.87803819444443,29.5L179.1796875,32.44999718666077L179.33051215277777,35.39999437332153L179.48133680555554,35.39999437332153L179.63216145833331,29.5L179.78298611111111,29.5L180.23546006944443,32.44999718666077L180.537109375,32.44999718666077L180.68793402777777,32.44999718666077L180.98958333333331,35.39999437332153L181.14040798611111,32.44999718666077L181.44205729166666,32.44999718666077L181.59288194444443,29.5L181.7437065972222,38.3499915599823L181.89453125,32.44999718666077L182.19618055555554,29.5L182.34700520833331,29.5L182.49782986111111,35.39999437332153L182.79947916666666,29.5L182.95030381944443,29.5L183.1011284722222,32.44999718666077L183.251953125,35.39999437332153L183.55360243055554,32.44999718666077L183.70442708333331,29.5L184.00607638888889,35.39999437332153L184.4585503472222,35.39999437332153L184.76019965277777,35.39999437332153L184.91102430555554,32.44999718666077L185.06184895833331,32.44999718666077L185.2126736111111,29.5L185.51432291666666,35.39999437332153L185.8159722222222,29.5L185.96679687500003,29.5L186.1176215277778,35.39999437332153L186.26844618055554,32.44999718666077L186.41927083333331,29.5L186.5700954861111,29.5L186.7209201388889,29.5L186.87174479166669,32.44999718666077L187.02256944444446,32.44999718666077L187.4750434027778,35.39999437332153L187.62586805555557,32.44999718666077L187.77669270833334,29.5L188.53081597222223,35.39999437332153L188.681640625,35.39999437332153L188.8324652777778,35.39999437332153L188.98328993055557,29.5L189.28493923611111,29.5L189.4357638888889,29.5L189.58658854166669,29.5L189.73741319444446,35.39999437332153L189.88823784722223,29.5L190.64236111111111,29.5L190.79318576388889,29.5L190.94401041666669,32.44999718666077L191.09483506944446,32.44999718666077L191.24565972222223,29.5L191.396484375,35.39999437332153L191.69813368055557,29.5L191.84895833333334,29.5L191.99978298611111,29.5L192.15060763888889,32.44999718666077L192.30143229166669,29.5L192.45225694444446,32.44999718666077L192.60308159722223,29.5L192.75390625,29.5L192.9047309027778,29.5L193.20638020833334,29.5L193.35720486111111,32.44999718666077L193.50802951388889,29.5L193.65885416666669,32.44999718666077L193.80967881944446,35.39999437332153L193.96050347222223,35.39999437332153L194.111328125,29.5L194.41297743055557,29.5L194.71462673611111,32.44999718666077L195.01627604166669,32.44999718666077L195.16710069444446,32.44999718666077L195.31792534722223,29.5L195.61957465277777,32.44999718666077L195.92122395833334,29.5L196.07204861111111,29.5L196.37369791666669,29.5L196.67534722222223,32.44999718666077L196.826171875,29.5L196.97699652777777,29.5L197.27864583333334,29.5L197.73111979166669,32.44999718666077L197.88194444444446,29.5L198.33441840277777,29.5L198.48524305555557,29.5L198.63606770833334,29.5L199.08854166666666,29.5L199.23936631944446,32.44999718666077L199.541015625,29.5L199.69184027777777,29.5L199.84266493055557,29.5L199.99348958333334,32.44999718666077L200.14431423611111,29.5L200.29513888888889,29.5L200.44596354166666,29.5L200.59678819444446,29.5L200.74761284722223,29.5L200.8984375,29.5L201.20008680555557,32.44999718666077L201.35091145833334,29.5L201.50173611111111,29.5L201.95421006944446,32.44999718666077L202.10503472222223,29.5L202.40668402777777,29.5L202.55750868055554,29.5L202.70833333333334,35.39999437332153L202.85915798611111,29.5L203.16080729166666,32.44999718666077L203.31163194444446,35.39999437332153L203.61328125,29.5L203.76410590277777,32.44999718666077L203.91493055555554,29.5L204.06575520833334,32.44999718666077L204.21657986111111,29.5L204.36740451388889,29.5L204.51822916666666,35.39999437332153L204.66905381944446,32.44999718666077L204.81987847222223,29.5L204.970703125,35.39999437332153L205.12152777777777,29.5L205.27235243055554,38.3499915599823L205.42317708333334,32.44999718666077L205.57400173611111,32.44999718666077L205.87565104166666,32.44999718666077L206.02647569444443,29.5L206.17730034722223,29.5L206.328125,32.44999718666077L206.62977430555554,32.44999718666077L206.78059895833334,29.5L207.38389756944443,29.5L207.83637152777777,35.39999437332153L208.28884548611111,29.5L208.43967013888889,35.39999437332153L208.59049479166666,32.44999718666077L208.74131944444443,32.44999718666077L209.04296875,32.44999718666077L209.19379340277777,32.44999718666077L209.34461805555554,29.5L209.49544270833331,29.5L209.64626736111111,29.5L209.94791666666666,29.5L210.09874131944443,32.44999718666077L210.24956597222223,35.39999437332153L210.400390625,32.44999718666077L210.55121527777777,29.5L210.70203993055554,29.5L210.85286458333331,38.3499915599823L211.00368923611111,29.5L211.15451388888889,32.44999718666077L211.30533854166666,29.5L211.45616319444443,29.5L211.7578125,32.44999718666077L211.90863715277777,38.3499915599823L212.21028645833331,29.5L212.36111111111111,35.39999437332153L212.51193576388889,38.3499915599823L212.81358506944443,29.5L212.96440972222223,32.44999718666077L213.115234375,29.5L213.26605902777777,29.5L213.41688368055554,32.44999718666077L213.56770833333331,32.44999718666077L214.17100694444443,35.39999437332153L214.47265625,32.44999718666077L214.92513020833331,29.5L215.07595486111111,29.5L215.22677951388889,35.39999437332153L215.37760416666666,29.5L215.52842881944443,29.5L215.6792534722222,29.5L215.98090277777777,29.5L216.13172743055554,35.39999437332153L216.28255208333331,29.5L216.43337673611111,29.5L216.58420138888889,29.5L216.73502604166666,29.5L216.88585069444443,29.5L217.0366753472222,32.44999718666077L217.1875,29.5L217.33832465277777,29.5L217.63997395833331,32.44999718666077L217.7907986111111,29.5L217.94162326388889,35.39999437332153L218.24327256944443,29.5L218.3940972222222,29.5L218.544921875,29.5L218.69574652777777,32.44999718666077L218.84657118055554,29.5L218.99739583333331,29.5L219.29904513888889,32.44999718666077L219.44986979166666,29.5L219.60069444444443,35.39999437332153L219.7515190972222,29.5L219.90234375000003,32.44999718666077L220.0531684027778,32.44999718666077L220.20399305555554,29.5L220.5056423611111,32.44999718666077L220.6564670138889,32.44999718666077L220.80729166666669,29.5L220.95811631944446,32.44999718666077L221.1089409722222,32.44999718666077L221.25976562499997,35.39999437332153L221.4105902777778,29.5L221.56141493055557,29.5L221.71223958333334,32.44999718666077L222.0138888888889,29.5L222.16471354166669,38.3499915599823L222.46636284722223,29.5L223.06966145833334,29.5L223.22048611111111,32.44999718666077L223.52213541666669,29.5L223.67296006944446,29.5L223.82378472222223,32.44999718666077L224.1254340277778,29.5L224.42708333333334,29.5L224.57790798611111,29.5L224.72873263888889,35.39999437332153L225.03038194444446,32.44999718666077L225.18120659722223,29.5L225.33203125,29.5L225.4828559027778,32.44999718666077L225.78450520833334,29.5L225.93532986111111,29.5L226.08615451388889,35.39999437332153L226.23697916666669,29.5L226.38780381944446,29.5L226.689453125,38.3499915599823L226.8402777777778,29.5L226.99110243055557,29.5L227.29275173611111,29.5L227.44357638888889,29.5L227.89605034722223,29.5L228.19769965277777,29.5L228.34852430555557,35.39999437332153L228.65017361111111,29.5L228.80099826388889,29.5L228.95182291666669,29.5L229.10264756944446,29.5L229.25347222222223,29.5L229.404296875,32.44999718666077L229.55512152777777,29.5L229.70594618055557,32.44999718666077L230.00759548611111,32.44999718666077L230.15842013888889,29.5L230.30924479166669,29.5L230.46006944444446,29.5L230.61089409722223,32.44999718666077L230.76171875,32.44999718666077L230.91254340277777,29.5L231.21419270833334,32.44999718666077L231.36501736111111,29.5L231.51584201388889,32.44999718666077L231.66666666666669,32.44999718666077L231.81749131944446,32.44999718666077L231.96831597222223,29.5L232.42078993055557,29.5L232.72243923611111,29.5L232.87326388888889,29.5L233.02408854166666,29.5L233.17491319444446,29.5L233.32573784722223,29.5L233.4765625,32.44999718666077L233.62738715277777,32.44999718666077L233.77821180555557,29.5L233.92903645833334,29.5L234.07986111111111,32.44999718666077L234.53233506944446,32.44999718666077L234.68315972222223,32.44999718666077L235.13563368055557,32.44999718666077L235.28645833333334,35.39999437332153L235.43728298611111,35.39999437332153L235.58810763888889,29.5L235.73893229166666,29.5L235.88975694444446,29.5L236.19140625,32.44999718666077L236.34223090277777,29.5L236.49305555555554,29.5L236.64388020833334,29.5L236.79470486111111,29.5L236.94552951388889,29.5L237.09635416666666,32.44999718666077L237.39800347222223,41.300006330013304L237.548828125,35.39999437332153L237.69965277777777,35.39999437332153L238.00130208333334,29.5L238.15212673611111,35.39999437332153L238.30295138888889,35.39999437332153L238.60460069444446,29.5L238.75542534722223,29.5L239.05707465277777,29.5L239.20789930555554,32.44999718666077L239.35872395833334,29.5L239.50954861111111,29.5L239.66037326388889,29.5L239.81119791666666,29.5L240.11284722222223,32.44999718666077L240.263671875,32.44999718666077L240.71614583333334,32.44999718666077L241.01779513888889,32.44999718666077L241.47026909722223,29.5" style="fill: none;" fill="none"></path></g></g></g></g></g></g><g transform="translate(58, 177)" clip-path="url(#clip_1)"><clipPath id="clip_1"><rect width="271" height="23"></rect></clipPath><g><g><line x1="0" y1="0" x2="0" y2="5" style="visibility: inherit;" fill="rgb(0, 0, 0)" stroke="rgb(204, 204, 204)" stroke-width="1px"></line><line x1="30.164930555555554" y1="0" x2="30.164930555555554" y2="5" style="visibility: inherit;" fill="rgb(0, 0, 0)" stroke="rgb(204, 204, 204)" stroke-width="1px"></line><line x1="60.32986111111111" y1="0" x2="60.32986111111111" y2="5" style="visibility: inherit;" fill="rgb(0, 0, 0)" stroke="rgb(204, 204, 204)" stroke-width="1px"></line><line x1="90.49479166666666" y1="0" x2="90.49479166666666" y2="5" style="visibility: inherit;" fill="rgb(0, 0, 0)" stroke="rgb(204, 204, 204)" stroke-width="1px"></line><line x1="120.65972222222221" y1="0" x2="120.65972222222221" y2="5" style="visibility: inherit;" fill="rgb(0, 0, 0)" stroke="rgb(204, 204, 204)" stroke-width="1px"></line><line x1="150.82465277777777" y1="0" x2="150.82465277777777" y2="5" style="visibility: inherit;" fill="rgb(0, 0, 0)" stroke="rgb(204, 204, 204)" stroke-width="1px"></line><line x1="180.98958333333331" y1="0" x2="180.98958333333331" y2="5" style="visibility: inherit;" fill="rgb(0, 0, 0)" stroke="rgb(204, 204, 204)" stroke-width="1px"></line><line x1="211.15451388888889" y1="0" x2="211.15451388888889" y2="5" style="visibility: inherit;" fill="rgb(0, 0, 0)" stroke="rgb(204, 204, 204)" stroke-width="1px"></line><line x1="241.31944444444443" y1="0" x2="241.31944444444443" y2="5" style="visibility: inherit;" fill="rgb(0, 0, 0)" stroke="rgb(204, 204, 204)" stroke-width="1px"></line><line x1="271.484375" y1="0" x2="271.484375" y2="5" style="visibility: inherit;" fill="rgb(0, 0, 0)" stroke="rgb(204, 204, 204)" stroke-width="1px"></line></g><g transform="translate(0, 8)"><text x="0" y="0" dx="0em" dy="0.95em" style="text-anchor: middle; visibility: hidden; font-family: &quot;Helvetica Neue&quot;, sans-serif; font-size: 12px; font-weight: 200;" fill="rgb(50, 49, 63)" stroke="none" stroke-width="1px">-200.0</text><text x="30.164930555555554" y="0" dx="0em" dy="0.95em" style="text-anchor: middle; visibility: inherit; font-family: &quot;Helvetica Neue&quot;, sans-serif; font-size: 12px; font-weight: 200;" fill="rgb(50, 49, 63)" stroke="none" stroke-width="1px">0.000</text><text x="60.32986111111111" y="0" dx="0em" dy="0.95em" style="text-anchor: middle; visibility: hidden; font-family: &quot;Helvetica Neue&quot;, sans-serif; font-size: 12px; font-weight: 200;" fill="rgb(50, 49, 63)" stroke="none" stroke-width="1px">200.0</text><text x="90.49479166666666" y="0" dx="0em" dy="0.95em" style="text-anchor: middle; visibility: inherit; font-family: &quot;Helvetica Neue&quot;, sans-serif; font-size: 12px; font-weight: 200;" fill="rgb(50, 49, 63)" stroke="none" stroke-width="1px">400.0</text><text x="120.65972222222221" y="0" dx="0em" dy="0.95em" style="text-anchor: middle; visibility: hidden; font-family: &quot;Helvetica Neue&quot;, sans-serif; font-size: 12px; font-weight: 200;" fill="rgb(50, 49, 63)" stroke="none" stroke-width="1px">600.0</text><text x="150.82465277777777" y="0" dx="0em" dy="0.95em" style="text-anchor: middle; visibility: inherit; font-family: &quot;Helvetica Neue&quot;, sans-serif; font-size: 12px; font-weight: 200;" fill="rgb(50, 49, 63)" stroke="none" stroke-width="1px">800.0</text><text x="180.98958333333331" y="0" dx="0em" dy="0.95em" style="text-anchor: middle; visibility: hidden; font-family: &quot;Helvetica Neue&quot;, sans-serif; font-size: 12px; font-weight: 200;" fill="rgb(50, 49, 63)" stroke="none" stroke-width="1px">1.000k</text><text x="211.15451388888889" y="0" dx="0em" dy="0.95em" style="text-anchor: middle; visibility: inherit; font-family: &quot;Helvetica Neue&quot;, sans-serif; font-size: 12px; font-weight: 200;" fill="rgb(50, 49, 63)" stroke="none" stroke-width="1px">1.200k</text><text x="241.31944444444443" y="0" dx="0em" dy="0.95em" style="text-anchor: middle; visibility: hidden; font-family: &quot;Helvetica Neue&quot;, sans-serif; font-size: 12px; font-weight: 200;" fill="rgb(50, 49, 63)" stroke="none" stroke-width="1px">1.400k</text><text x="271.484375" y="0" dx="0em" dy="0.95em" style="text-anchor: middle; visibility: hidden; font-family: &quot;Helvetica Neue&quot;, sans-serif; font-size: 12px; font-weight: 200;" fill="rgb(50, 49, 63)" stroke="none" stroke-width="1px">1.600k</text></g><line x1="0" y1="0" x2="271.484375" y2="0" fill="rgb(0, 0, 0)" stroke="rgb(204, 204, 204)" stroke-width="1px"></line></g></g></g></g></svg>